<svg viewBox="0 0 120 120" xmlns="http://www.w3.org/2000/svg" xmlns:xlink="http://www.w3.org/1999/xlink" width="120.000000" height="120.000000" fill="none">
	<defs>
		<filter id="pixso_custom_mask_type_alpha">
			<feColorMatrix type="matrix" values="0 0 0 0 1 0 0 0 0 1 0 0 0 0 1 0 0 0 1 0 " />
		</filter>
	</defs>
	<mask id="mask_0" width="120.000000" height="120.000000" x="0.000000" y="0.000000" maskUnits="userSpaceOnUse">
		<g filter="url(#pixso_custom_mask_type_alpha)">
			<g id="clip487_68194">
				<rect id="IllHdEmptyNoRecord_light" width="120.000000" height="120.000000" x="0.000000" y="0.000000" fill="rgb(0,0,0)" />
			</g>
		</g>
	</mask>
	<rect id="IllHdEmptyNoRecord" width="120.000000" height="120.000000" x="0.000000" y="0.000000" />
	<rect id="IllHdEmptyNoRecord_light" width="120.000000" height="120.000000" x="0.000000" y="0.000000" fill="rgb(255,255,255)" fill-opacity="0" />
	<g id="clip path group" mask="url(#mask_0)">
		<g id="组合 31766">
			<path id="矩形 3214" d="M44.688 20.432L71.296 20.432C72.288 20.432 73.064 21.28 72.984 22.264L72.472 28.096C72.44 28.536 72.072 28.872 71.632 28.872L44.352 28.872C43.912 28.872 43.552 28.536 43.512 28.096L43.008 22.264C42.92 21.28 43.696 20.432 44.688 20.432Z" fill="rgb(156,168,197)" fill-rule="evenodd" />
			<path id="减去顶层" d="M43.0284 22.4824L30.7645 22.4824C27.8485 22.4824 25.4846 24.8463 25.4846 27.7624L25.4846 99.8336C25.4846 102.75 27.8485 105.114 30.7645 105.114L85.2496 105.114C88.1656 105.114 90.5296 102.75 90.5296 99.8336L90.5296 27.7624C90.5296 24.8463 88.1656 22.4824 85.2496 22.4824L72.9659 22.4824L72.5839 26.8838L82.7224 26.8838C84.6664 26.8838 86.2424 28.4598 86.2424 30.4038L86.2424 97.408C86.2424 99.352 84.6664 100.928 82.7224 100.928L33.2912 100.928C31.3471 100.928 29.7712 99.352 29.7712 97.408L29.7712 30.4038C29.7712 28.4598 31.3471 26.8838 33.2912 26.8838L43.4103 26.8838L43.0284 22.4824Z" fill="rgb(200,206,221)" fill-rule="evenodd" />
			<path id="减去顶层" d="M43.4104 26.8839L33.2912 26.8839C31.3472 26.8839 29.7712 28.4598 29.7712 30.4038L29.7712 97.408C29.7712 99.352 31.3472 100.928 33.2912 100.928L67.322 100.928C67.322 100.928 68.2831 94.2336 64.8314 87.3936C64.1864 86.1152 65.0577 84.372 66.4497 84.0368C74.7698 82.032 84.0016 73.5268 86.2408 69.0467C83.352 88.7712 72.4255 98.5192 67.3222 100.928L82.7224 100.928C84.6664 100.928 86.2424 99.352 86.2424 97.408L86.2424 30.4038C86.2424 28.4598 84.6664 26.8839 82.7224 26.8839L72.584 26.8839L72.4783 28.1014C72.4404 28.5374 72.0756 28.872 71.638 28.872L44.3564 28.872C43.9188 28.872 43.554 28.5374 43.5161 28.1014L43.4104 26.8839ZM71.7787 29.8333L44.1987 29.8333C43.8397 29.8333 43.5488 30.1242 43.5488 30.4832C43.5488 30.8421 43.8397 31.1331 44.1987 31.1331L71.7787 31.1331C72.1376 31.1331 72.4286 30.8421 72.4286 30.4832C72.4286 30.1242 72.1376 29.8333 71.7787 29.8333ZM40.1112 39.6882C39.1392 39.6882 38.3512 40.4761 38.3512 41.4482C38.3512 42.4202 39.1392 43.2082 40.1112 43.2082C41.0833 43.2082 41.8712 42.4202 41.8712 41.4482C41.8712 40.4761 41.0833 39.6882 40.1112 39.6882ZM76.3052 40.1282L45.7556 40.1282C45.0266 40.1282 44.4356 40.7191 44.4356 41.4482C44.4356 42.1771 45.0266 42.7682 45.7556 42.7682L76.3052 42.7682C77.0342 42.7682 77.6252 42.1771 77.6252 41.4482C77.6252 40.7191 77.0342 40.1282 76.3052 40.1282ZM40.1112 47.6082C39.1392 47.6082 38.3512 48.3961 38.3512 49.3682C38.3512 50.3402 39.1392 51.1282 40.1112 51.1282C41.0833 51.1282 41.8712 50.3402 41.8712 49.3682C41.8712 48.3961 41.0833 47.6082 40.1112 47.6082ZM76.3017 48.0482L45.7522 48.0482C45.0232 48.0482 44.4322 48.6391 44.4322 49.3682C44.4322 50.0971 45.0232 50.6882 45.7522 50.6882L76.3017 50.6882C77.0308 50.6882 77.6218 50.0971 77.6218 49.3682C77.6218 48.6391 77.0308 48.0482 76.3017 48.0482ZM40.1147 55.5282C39.1427 55.5282 38.3547 56.3161 38.3547 57.2882C38.3547 58.2602 39.1427 59.0482 40.1147 59.0482C41.0867 59.0482 41.8747 58.2602 41.8747 57.2882C41.8747 56.3161 41.0867 55.5282 40.1147 55.5282ZM76.3086 55.9682L45.7556 55.9682C45.0266 55.9682 44.4356 56.5591 44.4356 57.2882C44.4356 58.0171 45.0266 58.6082 45.7556 58.6082L76.3086 58.6082C77.0376 58.6082 77.6287 58.0171 77.6287 57.2882C77.6287 56.5591 77.0376 55.9682 76.3086 55.9682ZM51.2796 83.8832L39.6747 83.8832C38.9457 83.8832 38.3547 84.4744 38.3547 85.2032C38.3547 85.932 38.9457 86.5232 39.6747 86.5232L51.2796 86.5232C52.0088 86.5232 52.5997 85.932 52.5997 85.2032C52.5997 84.4744 52.0088 83.8832 51.2796 83.8832ZM51.2796 90.9232L39.6747 90.9232C38.9457 90.9232 38.3547 91.5144 38.3547 92.2432C38.3547 92.972 38.9457 93.5632 39.6747 93.5632L51.2796 93.5632C52.0088 93.5632 52.5997 92.972 52.5997 92.2432C52.5997 91.5144 52.0088 90.9232 51.2796 90.9232Z" fill="rgb(226,231,245)" fill-rule="evenodd" />
			<rect id="矩形 3215" width="28.879889" height="1.299841" x="43.548706" y="29.833252" rx="0.649921" fill="rgb(156,168,197)" />
			<path id="矩形 3216" d="M99.472 55.416C99.184 53.424 98.736 51.504 98.288 49.904C97.872 48.384 95.992 48.424 95.624 49.96C95.248 51.552 94.856 53.448 94.6 55.416C93.904 60.648 94.104 68.288 94.104 68.288L99.92 68.288C99.92 68.288 100.232 60.648 99.472 55.416Z" fill="rgb(215,221,238)" fill-rule="evenodd" />
			<path id="矩形 3217" d="M99.0719 95.176C98.864 96.848 98.56 98.464 98.2479 99.896C97.888 101.512 95.928 101.472 95.616 99.848C95.3439 98.432 95.0799 96.832 94.896 95.176C94.296 89.928 94.552 68.84 94.552 68.84L99.5359 68.84C99.5359 68.84 99.72 89.928 99.0719 95.176Z" fill="rgb(215,221,238)" fill-rule="evenodd" />
			<path id="矢量 1427" d="M98.68 51.568L98.672 51.544C98.336 51.384 97.952 51.52 97.792 51.856C97.632 52.192 97.768 52.576 98.104 52.736L98.12 52.728L98.68 51.568ZM100.904 67.672L100.88 67.688C100.872 68.064 101.16 68.36 101.528 68.368C101.896 68.376 102.192 68.088 102.2 67.72L102.184 67.704L100.904 67.672Z" fill="rgb(223,223,223)" fill-rule="nonzero" />
			<path id="矢量 1427" d="M98.384 52.144L98.64 52.264C99.936 52.888 100.888 54.032 101.08 55.456C101.368 57.616 101.68 61.488 101.544 67.704" fill-rule="evenodd" stroke="rgb(215,221,238)" stroke-linecap="round" stroke-width="1.320000" />
			<path id="矢量 1444" d="M86.24 69.04C84 73.52 74.768 82.032 66.448 84.032C65.056 84.368 64.184 86.112 64.824 87.392C68.28 94.232 67.32 100.928 67.32 100.928C72.424 98.512 83.352 88.768 86.24 69.04Z" fill="rgb(200,206,221)" fill-rule="evenodd" />
			<path id="合并" d="M38.3512 41.4482C38.3512 40.4761 39.1392 39.6882 40.1112 39.6882C41.0832 39.6882 41.8712 40.4761 41.8712 41.4482C41.8712 42.4202 41.0832 43.2082 40.1112 43.2082C39.1392 43.2082 38.3512 42.4202 38.3512 41.4482ZM45.7556 40.1282L76.3051 40.1282C77.0342 40.1282 77.6251 40.7191 77.6251 41.4482C77.6251 42.1771 77.0342 42.7682 76.3051 42.7682L45.7556 42.7682C45.0265 42.7682 44.4355 42.1771 44.4355 41.4482C44.4355 40.7191 45.0265 40.1282 45.7556 40.1282ZM38.3512 49.3682C38.3512 48.3961 39.1392 47.6082 40.1112 47.6082C41.0832 47.6082 41.8712 48.3961 41.8712 49.3682C41.8712 50.3402 41.0832 51.1282 40.1112 51.1282C39.1392 51.1282 38.3512 50.3402 38.3512 49.3682ZM45.7521 48.0482L76.3017 48.0482C77.0307 48.0482 77.6218 48.6391 77.6218 49.3682C77.6218 50.0971 77.0307 50.6882 76.3017 50.6882L45.7521 50.6882C45.0231 50.6882 44.4322 50.0971 44.4322 49.3682C44.4322 48.6391 45.0231 48.0482 45.7521 48.0482ZM38.3546 57.2882C38.3546 56.3161 39.1426 55.5282 40.1146 55.5282C41.0866 55.5282 41.8746 56.3161 41.8746 57.2882C41.8746 58.2602 41.0866 59.0482 40.1146 59.0482C39.1426 59.0482 38.3546 58.2602 38.3546 57.2882ZM45.7556 55.9682L76.3086 55.9682C77.0376 55.9682 77.6286 56.5591 77.6286 57.2882C77.6286 58.0171 77.0376 58.6082 76.3086 58.6082L45.7556 58.6082C45.0265 58.6082 44.4355 58.0171 44.4355 57.2882C44.4355 56.5591 45.0265 55.9682 45.7556 55.9682ZM39.6746 83.8832L51.2796 83.8832C52.0086 83.8832 52.5996 84.4744 52.5996 85.2032C52.5996 85.932 52.0086 86.5232 51.2796 86.5232L39.6746 86.5232C38.9456 86.5232 38.3546 85.932 38.3546 85.2032C38.3546 84.4744 38.9456 83.8832 39.6746 83.8832ZM39.6746 90.9232L51.2796 90.9232C52.0086 90.9232 52.5996 91.5144 52.5996 92.2432C52.5996 92.972 52.0086 93.5632 51.2796 93.5632L39.6746 93.5632C38.9456 93.5632 38.3546 92.972 38.3546 92.2432C38.3546 91.5144 38.9456 90.9232 39.6746 90.9232Z" fill="rgb(255,255,255)" fill-rule="evenodd" />
			<path id="矢量 349" d="M92.416 21.336L93.944 19.192" stroke="rgb(57,121,249)" stroke-linecap="round" stroke-width="1.760000" />
			<path id="矢量 351" d="M89.584 20.04L89.984 17.432" stroke="rgb(57,121,249)" stroke-linecap="round" stroke-width="1.760000" />
			<path id="矢量 350" d="M94.608 23.432L97.024 22.376" stroke="rgb(85,204,217)" stroke-linecap="round" stroke-width="1.760000" />
		</g>
	</g>
</svg>
