<svg viewBox="0 0 16 16" xmlns="http://www.w3.org/2000/svg" xmlns:xlink="http://www.w3.org/1999/xlink" width="16.000000" height="16.000000" fill="none">
	<rect id="folder" width="16.000000" height="16.000000" x="0.000000" y="0.000000" />
	<rect id="矩形 543910" width="16.000000" height="16.000000" x="0.000000" y="0.000000" opacity="0" fill="rgb(0,0,0)" />
	<g id="组合 31794">
		<path id="矢量 1454" d="M13.6 4.79996C13.5022 4.19108 13.2245 3.68441 12.7667 3.27996C12.3089 2.87552 11.7645 2.6733 11.1333 2.6733L5.95334 2.6733C5.84667 2.48219 5.69112 2.32885 5.48667 2.2133C5.28667 2.10219 5.07334 2.04663 4.84667 2.04663L2.89334 2.04663C2.4889 2.04663 2.11556 2.14885 1.77334 2.3533C1.43556 2.5533 1.16667 2.82441 0.966673 3.16663C0.771118 3.50885 0.67334 3.88219 0.67334 4.28663L0.67334 11.7133C0.67334 12.1177 0.771118 12.4933 0.966673 12.84C1.16667 13.1866 1.43556 13.4577 1.77334 13.6533C2.11556 13.8533 2.4889 13.9533 2.89334 13.9533L13.1067 13.9533C13.5111 13.9533 13.8844 13.8533 14.2267 13.6533C14.5645 13.4577 14.8333 13.1866 15.0333 12.84C15.2289 12.4933 15.3267 12.1177 15.3267 11.7133L15.3267 6.9733C15.3267 6.4533 15.1645 5.99108 14.84 5.58663C14.5156 5.17774 14.1022 4.91552 13.6 4.79996ZM7.37334 4.7533C7.34223 4.7533 7.31112 4.74663 7.28001 4.7333C7.2489 4.72441 7.22001 4.70885 7.19334 4.68663C7.16667 4.66441 7.14223 4.63774 7.12001 4.60663L6.56001 3.67996L11.1333 3.67996C11.4756 3.67996 11.7778 3.77774 12.04 3.9733C12.3022 4.1733 12.4756 4.4333 12.56 4.7533L7.37334 4.7533ZM14.32 11.7133C14.32 12.0555 14.2 12.3489 13.96 12.5933C13.72 12.8377 13.4289 12.96 13.0867 12.96L2.89334 12.96C2.55556 12.96 2.26667 12.8377 2.02667 12.5933C1.78667 12.3489 1.66667 12.0555 1.66667 11.7133L1.66667 4.28663C1.66667 3.94441 1.78667 3.6533 2.02667 3.4133C2.26667 3.1733 2.55556 3.0533 2.89334 3.0533L4.84667 3.0533C4.90001 3.0533 4.95112 3.06663 5.00001 3.0933C5.0489 3.11996 5.08445 3.15552 5.10667 3.19996L6.27334 5.11996C6.38001 5.31108 6.53334 5.46219 6.73334 5.5733C6.93778 5.68885 7.15112 5.74663 7.37334 5.74663L13.1067 5.74663C13.4445 5.74663 13.7333 5.86663 13.9733 6.10663C14.2133 6.34663 14.3333 6.63552 14.3333 6.9733L14.32 11.7133Z" fill="currentColor" fill-rule="nonzero" />
	</g>
</svg>
