<svg viewBox="0 0 160 160" xmlns="http://www.w3.org/2000/svg" xmlns:xlink="http://www.w3.org/1999/xlink" width="160"
        height="160" fill="none" customFrame="#000000">
        <defs>
            <g id="pixso_custom_effect_0">
                <effect x="0.914285719" y="0" visibility="visible" fill="rgba(44,184,201,0.25098)"
                    effectType="dropShadow" stdDeviation="2.74285722" radius="0" />
            </g>
            <filter id="filter_0" width="104.685669" height="81.8284912" x="27.8857422" y="37.4857178"
                filterUnits="userSpaceOnUse" customEffect="url(#pixso_custom_effect_0)"
                color-interpolation-filters="sRGB">
                <feFlood flood-opacity="0" result="BackgroundImageFix" />
                <feColorMatrix result="hardAlpha" in="SourceAlpha" type="matrix"
                    values="0 0 0 0 0 0 0 0 0 0 0 0 0 0 0 0 0 0 127 0 " />
                <feOffset dx="0.914285719" dy="0" />
                <feGaussianBlur stdDeviation="0.914285719" />
                <feComposite k2="-1" k3="1" in2="hardAlpha" operator="out" />
                <feColorMatrix type="matrix"
                    values="0 0 0 0 0.172549 0 0 0 0 0.721569 0 0 0 0 0.788235 0 0 0 0.25098 0 " />
                <feBlend result="effect_dropShadow_1" in2="BackgroundImageFix" mode="normal" />
                <feBlend result="shape" in="SourceGraphic" in2="effect_dropShadow_1" mode="normal" />
            </filter>
            <clipPath id="clipPath_0">
                <rect width="18.2857151" height="18.2857151" x="99.1999512" y="107.428589"
                    fill="rgba(255,255,255,0.00392157)" />
            </clipPath>
            <g id="pixso_custom_effect_1">
                <effect visibility="visible" effectType="gaussianBlur" stdDeviation="5.96468353" />
            </g>
            <filter id="filter_1" width="30.2150879" height="30.2150879" x="93.2352295" y="101.463867"
                filterUnits="userSpaceOnUse" customEffect="url(#pixso_custom_effect_1)"
                color-interpolation-filters="sRGB">
                <feFlood flood-opacity="0" result="BackgroundImageFix" />
                <feBlend result="shape" in="SourceGraphic" in2="BackgroundImageFix" mode="normal" />
                <feGaussianBlur stdDeviation="1.98822784" result="effect_layerBlur_1" />
            </filter>
            <g id="pixso_custom_effect_2">
                <effect x="0" y="4" visibility="visible" fill="rgba(44,184,201,0.247059)" effectType="dropShadow"
                    stdDeviation="6" radius="0" />
                <effect x="3" y="15" visibility="hidden" fill="rgba(255,255,255,0.796078)" effectType="dropShadow"
                    stdDeviation="9" radius="0" />
                <effect visibility="visible" effectType="backgroundBlur" saturation="0" stdDeviation="7.2501092" />
            </g>
            <filter id="filter_2" width="43.0856934" height="48.5714111" x="107.37146" y="57.4285889"
                filterUnits="userSpaceOnUse" customEffect="url(#pixso_custom_effect_2)"
                color-interpolation-filters="sRGB">
                <feFlood flood-opacity="0" result="BackgroundImageFix" />
                <feGaussianBlur stdDeviation="2.41670299" in="BackgroundImage" />
                <feComposite result="effect_backgroundBlur_1" in2="SourceAlpha" operator="in" />
                <feColorMatrix result="hardAlpha" in="SourceAlpha" type="matrix"
                    values="0 0 0 0 0 0 0 0 0 0 0 0 0 0 0 0 0 0 127 0 " />
                <feOffset dx="0" dy="4" />
                <feGaussianBlur stdDeviation="2" />
                <feComposite k2="-1" k3="1" in2="hardAlpha" operator="out" />
                <feColorMatrix type="matrix"
                    values="0 0 0 0 0.172549 0 0 0 0 0.721569 0 0 0 0 0.788235 0 0 0 0.247059 0 " />
                <feBlend result="effect_dropShadow_2" in2="effect_backgroundBlur_1" mode="normal" />
                <feBlend result="shape" in="SourceGraphic" in2="effect_dropShadow_2" mode="normal" />
            </filter>
            <g id="pixso_custom_effect_3">
                <effect x="0.914285719" y="0" visibility="visible" fill="rgba(0,187,255,0.2)" effectType="dropShadow"
                    stdDeviation="2.74285722" radius="0" />
                <effect x="1.37142861" y="6.85714293" visibility="visible" fill="rgba(0,187,255,0.0470588)"
                    effectType="dropShadow" stdDeviation="4.11428595" radius="0" />
                <effect visibility="visible" effectType="backgroundBlur" saturation="0" stdDeviation="3.31433558" />
            </g>
            <filter id="filter_3" width="31.0856934" height="36.5714111" x="113.37146" y="59.4285889"
                filterUnits="userSpaceOnUse" customEffect="url(#pixso_custom_effect_3)"
                color-interpolation-filters="sRGB">
                <feFlood flood-opacity="0" result="BackgroundImageFix" />
                <feGaussianBlur stdDeviation="1.10477853" in="BackgroundImage" />
                <feComposite result="effect_backgroundBlur_1" in2="SourceAlpha" operator="in" />
                <feColorMatrix result="hardAlpha" in="SourceAlpha" type="matrix"
                    values="0 0 0 0 0 0 0 0 0 0 0 0 0 0 0 0 0 0 127 0 " />
                <feOffset dx="0.914285719" dy="0" />
                <feGaussianBlur stdDeviation="0.914285719" />
                <feComposite k2="-1" k3="1" in2="hardAlpha" operator="out" />
                <feColorMatrix type="matrix" values="0 0 0 0 0 0 0 0 0 0.733333 0 0 0 0 1 0 0 0 0.2 0 " />
                <feBlend result="effect_dropShadow_2" in2="effect_backgroundBlur_1" mode="normal" />
                <feColorMatrix result="hardAlpha" in="SourceAlpha" type="matrix"
                    values="0 0 0 0 0 0 0 0 0 0 0 0 0 0 0 0 0 0 127 0 " />
                <feOffset dx="1.37142861" dy="6.85714293" />
                <feGaussianBlur stdDeviation="1.37142861" />
                <feComposite k2="-1" k3="1" in2="hardAlpha" operator="out" />
                <feColorMatrix type="matrix" values="0 0 0 0 0 0 0 0 0 0.733333 0 0 0 0 1 0 0 0 0.0470588 0 " />
                <feBlend result="effect_dropShadow_3" in2="effect_dropShadow_2" mode="normal" />
                <feBlend result="shape" in="SourceGraphic" in2="effect_dropShadow_3" mode="normal" />
            </filter>
            <linearGradient id="paint_linear_0" x1="122.115746" x2="138.971405" y1="64.9318008" y2="85.0285263"
                gradientUnits="userSpaceOnUse">
                <stop stop-color="rgba(0,103,208,1)" offset="0" stop-opacity="1" />
                <stop stop-color="rgba(0,103,208,1)" offset="0.195612982" stop-opacity="1" />
                <stop stop-color="rgba(0,103,208,1)" offset="1" stop-opacity="0.262745112" />
            </linearGradient>
            <linearGradient id="paint_linear_1" x1="118.348763" x2="131.16922" y1="73.5999603" y2="83.8848495"
                gradientUnits="userSpaceOnUse">
                <stop stop-color="rgba(185,236,255,1)" offset="0" stop-opacity="0.329411775" />
                <stop stop-color="rgba(0,187,255,1)" offset="1" stop-opacity="0.0588235296" />
            </linearGradient>
            <linearGradient id="paint_linear_2" x1="124.350754" x2="127.506432" y1="65.4770279" y2="84.805603"
                gradientUnits="userSpaceOnUse">
                <stop stop-color="rgba(169,209,241,1)" offset="0" stop-opacity="1" />
                <stop stop-color="rgba(255,255,255,1)" offset="1" stop-opacity="1" />
            </linearGradient>
            <g id="pixso_custom_effect_4">
                <effect x="0" y="0.45714286" visibility="visible" fill="rgba(91,182,255,0.6)" effectType="dropShadow"
                    stdDeviation="0.914285719" radius="0" />
            </g>
            <filter id="filter_4" width="16.4493408" height="11.8770752" x="119.318115" y="68.1181641"
                filterUnits="userSpaceOnUse" customEffect="url(#pixso_custom_effect_4)"
                color-interpolation-filters="sRGB">
                <feFlood flood-opacity="0" result="BackgroundImageFix" />
                <feColorMatrix result="hardAlpha" in="SourceAlpha" type="matrix"
                    values="0 0 0 0 0 0 0 0 0 0 0 0 0 0 0 0 0 0 127 0 " />
                <feOffset dx="0" dy="0.45714286" />
                <feGaussianBlur stdDeviation="0.304761916" />
                <feComposite k2="-1" k3="1" in2="hardAlpha" operator="out" />
                <feColorMatrix type="matrix" values="0 0 0 0 0.356863 0 0 0 0 0.713726 0 0 0 0 1 0 0 0 0.6 0 " />
                <feBlend result="effect_dropShadow_1" in2="BackgroundImageFix" mode="normal" />
                <feBlend result="shape" in="SourceGraphic" in2="effect_dropShadow_1" mode="normal" />
            </filter>
            <linearGradient id="paint_linear_3" x1="125.036942" x2="134.690033" y1="68.7385254" y2="78.4605255"
                gradientUnits="userSpaceOnUse">
                <stop stop-color="rgba(255,255,255,1)" offset="0" stop-opacity="1" />
                <stop stop-color="rgba(255,255,255,1)" offset="1" stop-opacity="0.400000006" />
            </linearGradient>
            <linearGradient id="paint_linear_4" x1="122.24646" x2="131.752716" y1="73.5995255" y2="77.4702454"
                gradientUnits="userSpaceOnUse">
                <stop stop-color="rgba(255,255,255,1)" offset="0" stop-opacity="1" />
                <stop stop-color="rgba(255,255,255,1)" offset="1" stop-opacity="0.274509817" />
            </linearGradient>
            <clipPath id="clipPath_1">
                <rect width="10.971427" height="10.9714289" x="14.62854" y="56.6856689"
                    fill="rgba(255,255,255,0.00392157)" />
            </clipPath>
        </defs>
        <rect id="操作成功" width="159.999985" height="159.999985" x="0" y="0" fill="rgba(255,255,255,1)"
            fill-opacity="0" />
        <g id="01背景氛围/02">
            <path id="路径 47"
                d="M126.426 29.4709C117.177 24.6656 113.898 5.55614 85.7096 0.743367C57.521 -4.06941 46.3502 15.8054 29.8611 22.5221C13.3719 29.2388 -3.08159 40.5901 0.493997 62.6089C3.0524 78.3638 10.312 89.4327 29.8206 95.6871C46.2419 100.952 54.5798 119.592 80.5069 118.835C106.434 118.077 109.712 100.201 118.456 96.1401C127.201 92.0793 143.671 88.5377 146.75 67.2984C149.914 45.4723 135.675 34.2762 126.426 29.4709Z"
                fill="rgba(13,148,255,1)" fill-opacity="0.101960786" fill-rule="evenodd"
                transform="matrix(1,0,0,-1,8.79358,140.605)" />
        </g>
        <g id="02中景环境/窗口">
            <g filter="url(#filter_0)">
                <rect id="矩形" width="99.1999893" height="76.3428497" x="29.7142334" y="40.2285156" rx="4.57142878"
                    fill="rgba(255,255,255,1)" />
                <rect id="矩形" width="98.7428436" height="75.885704" x="29.9428043" y="40.4570885" rx="4.57142878"
                    stroke="rgba(198,194,194,1)" stroke-opacity="0" stroke-width="0.45714286" />
            </g>
            <path id="矩形"
                d="M124.343 40.2285C126.868 40.2285 128.914 42.2752 128.914 44.7999L128.914 56.6857L29.7142 56.6857L29.7142 44.7999C29.7142 42.2752 31.7609 40.2285 34.2857 40.2285L124.343 40.2285Z"
                fill="rgba(198,194,194,1)" fill-rule="evenodd" />
            <path id="矩形"
                d="M124.343 40.2285C126.868 40.2285 128.914 42.2752 128.914 44.7999L128.914 56.6857L29.7142 56.6857L29.7142 44.7999C29.7142 42.2752 31.7609 40.2285 34.2857 40.2285L124.343 40.2285Z"
                fill-rule="evenodd" stroke="rgba(129,129,129,1)" stroke-opacity="0" stroke-linejoin="round"
                stroke-width="0.45714286" />
            <path id="形状结合"
                d="M107.885 48.6857C107.885 47.5496 106.964 46.6285 105.828 46.6285C104.692 46.6285 103.771 47.5496 103.771 48.6857C103.771 49.8218 104.692 50.7428 105.828 50.7428C106.964 50.7428 107.885 49.8218 107.885 48.6857ZM113.143 46.6285C114.279 46.6285 115.2 47.5496 115.2 48.6857C115.2 49.8218 114.279 50.7428 113.143 50.7428C112.007 50.7428 111.086 49.8218 111.086 48.6857C111.086 47.5496 112.007 46.6285 113.143 46.6285ZM120.457 46.6285C121.593 46.6285 122.514 47.5496 122.514 48.6857C122.514 49.8218 121.593 50.7428 120.457 50.7428C119.321 50.7428 118.4 49.8218 118.4 48.6857C118.4 47.5496 119.321 46.6285 120.457 46.6285Z"
                fill="rgba(255,255,255,1)" fill-rule="evenodd" />
            <path id="形状结合"
                d="M105.828 46.6285C106.964 46.6285 107.885 47.5496 107.885 48.6857C107.885 49.8218 106.964 50.7428 105.828 50.7428C104.692 50.7428 103.771 49.8218 103.771 48.6857C103.771 47.5496 104.692 46.6285 105.828 46.6285ZM115.2 48.6857C115.2 47.5496 114.279 46.6285 113.143 46.6285C112.007 46.6285 111.086 47.5496 111.086 48.6857C111.086 49.8218 112.007 50.7428 113.143 50.7428C114.279 50.7428 115.2 49.8218 115.2 48.6857ZM122.514 48.6857C122.514 47.5496 121.593 46.6285 120.457 46.6285C119.321 46.6285 118.4 47.5496 118.4 48.6857C118.4 49.8218 119.321 50.7428 120.457 50.7428C121.593 50.7428 122.514 49.8218 122.514 48.6857ZM107.388 48.3244Q107.428 48.5003 107.428 48.6857Q107.428 48.871 107.388 49.047Q107.357 49.1803 107.303 49.3083Q107.247 49.4404 107.17 49.5587Q107.079 49.6974 106.96 49.817Q106.84 49.9367 106.701 50.0271Q106.583 50.1042 106.451 50.1601Q106.323 50.2142 106.19 50.245Q106.014 50.2857 105.828 50.2857Q105.643 50.2857 105.467 50.245Q105.334 50.2142 105.206 50.1601Q105.074 50.1042 104.955 50.0271Q104.817 49.9367 104.697 49.817Q104.577 49.6974 104.487 49.5587Q104.41 49.4404 104.354 49.3083Q104.3 49.1803 104.269 49.047Q104.228 48.871 104.228 48.6857Q104.228 48.5003 104.269 48.3244Q104.3 48.191 104.354 48.063Q104.41 47.9309 104.487 47.8126Q104.577 47.6739 104.697 47.5543Q104.817 47.4347 104.955 47.3442Q105.074 47.2671 105.206 47.2112Q105.334 47.1571 105.467 47.1263Q105.643 47.0857 105.828 47.0857Q106.014 47.0857 106.19 47.1263Q106.323 47.1571 106.451 47.2112Q106.583 47.2671 106.701 47.3442Q106.84 47.4347 106.96 47.5543Q107.079 47.6739 107.17 47.8126Q107.247 47.9309 107.303 48.063Q107.357 48.191 107.388 48.3244ZM112.781 47.1263Q112.957 47.0857 113.143 47.0857Q113.328 47.0857 113.504 47.1263Q113.637 47.1571 113.765 47.2112Q113.897 47.2671 114.016 47.3442Q114.154 47.4347 114.274 47.5543Q114.394 47.6739 114.484 47.8126Q114.561 47.9309 114.617 48.063Q114.671 48.191 114.702 48.3244Q114.743 48.5003 114.743 48.6857Q114.743 48.871 114.702 49.047Q114.671 49.1803 114.617 49.3083Q114.561 49.4404 114.484 49.5587Q114.394 49.6974 114.274 49.817Q114.154 49.9367 114.016 50.0271Q113.897 50.1042 113.765 50.1601Q113.637 50.2142 113.504 50.245Q113.328 50.2857 113.143 50.2857Q112.957 50.2857 112.781 50.245Q112.648 50.2142 112.52 50.1601Q112.388 50.1042 112.27 50.0271Q112.131 49.9367 112.011 49.817Q111.892 49.6974 111.801 49.5587Q111.724 49.4404 111.668 49.3083Q111.614 49.1803 111.583 49.047Q111.543 48.871 111.543 48.6857Q111.543 48.5003 111.583 48.3244Q111.614 48.191 111.668 48.063Q111.724 47.9309 111.801 47.8126Q111.892 47.6739 112.011 47.5543Q112.131 47.4347 112.27 47.3442Q112.388 47.2671 112.52 47.2112Q112.648 47.1571 112.781 47.1263ZM120.096 47.1263Q120.272 47.0857 120.457 47.0857Q120.642 47.0857 120.818 47.1263Q120.952 47.1571 121.08 47.2112Q121.212 47.2671 121.33 47.3443Q121.469 47.4347 121.588 47.5543Q121.708 47.6739 121.798 47.8126Q121.876 47.9309 121.931 48.063Q121.986 48.191 122.016 48.3243Q122.057 48.5003 122.057 48.6857Q122.057 48.8711 122.016 49.0471Q121.986 49.1804 121.931 49.3083Q121.876 49.4405 121.798 49.5588Q121.708 49.6974 121.588 49.817Q121.469 49.9366 121.33 50.027Q121.212 50.1042 121.08 50.1601Q120.952 50.2142 120.818 50.245Q120.642 50.2857 120.457 50.2857Q120.272 50.2857 120.096 50.245Q119.962 50.2142 119.834 50.1601Q119.702 50.1042 119.584 50.0271Q119.445 49.9367 119.326 49.817Q119.206 49.6974 119.116 49.5587Q119.038 49.4404 118.983 49.3083Q118.928 49.1803 118.898 49.047Q118.857 48.871 118.857 48.6857Q118.857 48.5003 118.898 48.3244Q118.928 48.191 118.983 48.063Q119.038 47.9309 119.116 47.8126Q119.206 47.6739 119.326 47.5543Q119.445 47.4347 119.584 47.3443Q119.702 47.2671 119.834 47.2112Q119.962 47.1571 120.096 47.1263Z"
                fill="rgba(129,129,129,1)" fill-opacity="0" fill-rule="evenodd" />
        </g>
        <g id="03前景氛围/黄色矩形" customFrame="url(#clipPath_0)">
            <rect id="03前景氛围/黄色矩形" width="18.2857151" height="18.2857151" x="99.1999512" y="107.428589" />
            <g filter="url(#filter_1)">
                <rect id="矩形" width="18.2857151" height="18.2857151" x="99.1999512" y="107.428589" rx="1.46285713"
                    fill="rgba(246,196,91,1)" />
                <rect id="矩形" width="17.9200001" height="17.9200001" x="99.3828049" y="107.611443" rx="1.46285713"
                    stroke="rgba(225,223,223,1)" stroke-width="0.365714282" />
            </g>
        </g>
        <g id="中景人物/发型/女/07">
            <path id="路径 14"
                d="M13.624 1.49291C13.624 1.49291 12.7254 -0.000475752 11.6163 1.5161e-07C10.5072 0.000476056 8.74832 0.503144 6.90944 1.23609C5.07056 1.96903 3.66208 3.02992 3.66138 4.6535C3.66068 6.27709 1.13677 6.14196 0.246818 8.5887C-0.643139 11.0354 0.931222 13.7104 4.04069 15.0025C7.15016 16.2947 5.64556 17.3225 12.2971 19.2208C18.9486 21.1191 21.5169 21.4598 24.9093 20.2615C33.6591 17.1708 38.6277 10.7626 35.332 7.65249C32.0363 4.54235 28.7573 13.5929 24.3504 7.579C22.0343 4.41833 19.853 8.17753 17.9204 4.68784C15.9877 1.19815 13.624 1.49291 13.624 1.49291Z"
                fill="rgba(57,57,57,1)" fill-rule="evenodd"
                transform="matrix(-0.961262,0.275637,0.275637,0.961262,67.8485,23.4147)" />
            <path id="路径 14"
                d="M13.624 1.49291C13.624 1.49291 12.7254 -0.000475752 11.6163 0C10.5072 0.000476056 8.74832 0.503144 6.90944 1.23609C5.07056 1.96903 3.66208 3.02992 3.66138 4.6535C3.66068 6.27709 1.13677 6.14196 0.246818 8.5887C-0.643139 11.0354 0.931222 13.7104 4.04069 15.0025C7.15016 16.2947 5.64556 17.3225 12.2971 19.2208C18.9486 21.1191 21.5169 21.4598 24.9093 20.2615C33.6591 17.1708 38.6277 10.7626 35.332 7.65249C33.8985 6.2997 32.4682 7.2476 30.9468 8.25582C28.9704 9.56557 26.8405 10.9771 24.3504 7.579C23.2161 6.03105 22.1141 6.14289 21.0578 6.2501C19.9573 6.36179 18.9065 6.46844 17.9204 4.68784C15.9877 1.19815 13.624 1.49291 13.624 1.49291ZM9.65524 0.784827C10.4668 0.566584 11.1206 0.457356 11.6165 0.457143C11.7883 0.457069 11.9721 0.514045 12.1678 0.628069C12.3454 0.731506 12.5256 0.877184 12.7085 1.0651C12.8445 1.20487 12.9737 1.35918 13.0962 1.52803C13.1563 1.61075 13.2016 1.6776 13.2323 1.72859L13.3855 1.98333L13.6804 1.94656L13.6806 1.94654C13.6894 1.94546 13.7085 1.94465 13.738 1.94412C13.8103 1.94283 13.8895 1.94679 13.9756 1.95601C14.2649 1.98698 14.5616 2.06871 14.8656 2.20119C15.3028 2.39166 15.7213 2.67465 16.1213 3.05016C16.6345 3.53193 17.1008 4.15165 17.5204 4.90932C17.7788 5.37577 18.0583 5.75008 18.3591 6.03224C18.6333 6.28954 18.9329 6.4777 19.2579 6.59672C19.2706 6.60139 19.2833 6.60594 19.2961 6.61039C19.5765 6.70782 19.8906 6.7579 20.2384 6.76064C20.4342 6.76218 20.7227 6.7436 21.104 6.7049C21.4434 6.67045 21.6957 6.65281 21.8607 6.65197C22.1189 6.65065 22.3496 6.67814 22.5528 6.73443C22.7924 6.80078 23.0198 6.91312 23.235 7.07146C23.4907 7.25956 23.7396 7.51881 23.9817 7.84921C24.6123 8.70983 25.2619 9.32723 25.9304 9.70142C26.3285 9.92426 26.7378 10.0641 27.1584 10.1211C27.3952 10.1532 27.6356 10.1589 27.8796 10.1384C28.4232 10.0926 29.0101 9.90906 29.6402 9.58772C29.8813 9.46477 30.1479 9.31222 30.44 9.13005C30.6117 9.02293 30.8649 8.85854 31.1993 8.63688C31.6937 8.30926 32.0597 8.07826 32.2973 7.94388C32.6733 7.7312 33.0043 7.58673 33.2902 7.51048C33.6022 7.42725 33.8888 7.41675 34.1501 7.47897C34.4461 7.54949 34.7355 7.71815 35.0182 7.98496C35.3338 8.28274 35.5646 8.61438 35.7107 8.97988C35.8861 9.41851 35.9395 9.9059 35.8708 10.4421C35.808 10.9332 35.644 11.4503 35.3788 11.9933C35.1091 12.5457 34.7436 13.1068 34.2824 13.6767C33.8127 14.257 33.2584 14.8283 32.6193 15.3906C31.9639 15.9671 31.2379 16.518 30.4411 17.0431C28.7417 18.1631 26.8471 19.0922 24.7571 19.8305C23.924 20.1248 23.1329 20.3206 22.3839 20.4181C21.6056 20.5193 20.7666 20.529 19.8668 20.4471C18.9801 20.3664 17.924 20.1864 16.6984 19.907C15.6025 19.6572 14.1772 19.282 12.4225 18.7812C10.6135 18.2649 9.23162 17.7573 8.2768 17.2585C7.90899 17.0663 7.57637 16.861 7.27892 16.6426C7.10023 16.5114 6.86375 16.3182 6.56948 16.0629C6.38558 15.9033 6.24392 15.7833 6.1445 15.7027C5.9757 15.566 5.80945 15.4424 5.64575 15.3319C5.24157 15.059 4.76502 14.8085 4.21611 14.5804C3.49141 14.2792 2.85329 13.9013 2.30174 13.4466C1.77232 13.0101 1.35093 12.5266 1.03758 11.9961C0.736813 11.4869 0.552723 10.9631 0.485311 10.4246C0.483822 10.4127 0.48239 10.4008 0.481015 10.3889C0.452233 10.1397 0.449159 9.89286 0.471796 9.6484C0.500025 9.34355 0.568234 9.04241 0.676424 8.74496C0.767726 8.49395 0.884725 8.25981 1.02742 8.04255C1.16509 7.83295 1.32667 7.63906 1.51217 7.46088C1.66352 7.3155 1.84178 7.16947 2.04694 7.02278C2.17276 6.93282 2.36192 6.80725 2.61442 6.64607C2.85193 6.49447 3.02548 6.37935 3.13507 6.30071C3.32799 6.16229 3.48681 6.02733 3.61151 5.89582C3.80476 5.69204 3.94276 5.46934 4.02552 5.22772C4.08744 5.04697 4.11844 4.85563 4.11852 4.6537C4.1186 4.48559 4.13732 4.32185 4.17469 4.16249C4.27807 3.72163 4.52416 3.31423 4.91298 2.9403C5.40585 2.46629 6.12776 2.03977 7.0787 1.66074C8.01977 1.28565 8.87862 0.993677 9.65524 0.784827Z"
                fill="rgba(151,151,151,1)" fill-opacity="0" fill-rule="evenodd"
                transform="matrix(-0.961262,0.275637,0.275637,0.961262,67.8485,23.4147)" />
        </g>
        <g id="中景人物/身体/女/02">
            <path id="路径 16"
                d="M17.7269 16.2045C17.7269 16.2045 11.3951 7.90902 10.4622 6.50624C10.1357 6.01528 10.1188 4.5301 9.64491 3.73598C8.69669 2.14692 9.03436 0.679012 8.69604 0.304813C8.17554 -0.270871 7.63076 0.0524509 7.63095 0.583876C7.63114 1.1153 7.63106 0.890367 7.63162 2.47909C7.63219 4.06781 5.06459 2.37883 3.58266 2.1451C2.10074 1.91138 0.584291 1.98508 0.178071 2.47644C-0.228149 2.9678 -0.0444144 3.12972 1.84582 3.13039C3.73606 3.13106 6.42911 4.76025 7.02917 5.55742C7.62923 6.35459 9.04164 8.04417 9.6468 9.05449C10.252 10.0648 14.2959 18.1101 14.2959 18.1101L17.7269 16.2045Z"
                fill="rgba(251,219,207,1)" fill-rule="evenodd"
                transform="matrix(0.97437,-0.224951,0.224951,0.97437,19.9213,17.9976)" />
            <path id="路径 16"
                d="M17.4468 15.8372C17.6256 16.0718 17.7269 16.2045 17.7269 16.2045L17.323 16.4288L14.6959 17.8879L14.2959 18.1101C14.2959 18.1101 14.2211 17.9612 14.0903 17.7014C13.2593 16.0514 10.1696 9.92737 9.6468 9.05449C9.04164 8.04417 7.62923 6.35459 7.02917 5.55742C6.42911 4.76025 3.73606 3.13106 1.84582 3.13039C-0.0444144 3.12972 -0.228149 2.9678 0.178071 2.47644C0.584291 1.98508 2.10074 1.91138 3.58266 2.1451C4.04462 2.21796 4.61207 2.43223 5.17435 2.64455C6.41581 3.11332 7.63201 3.57256 7.63162 2.47909L7.63095 0.583876C7.63076 0.0524509 8.17554 -0.270871 8.69604 0.304813C9.03436 0.679012 8.69669 2.14692 9.64491 3.73598C10.1188 4.5301 10.1357 6.01528 10.4622 6.50624C11.2771 7.7316 16.2117 14.2165 17.4468 15.8372ZM17.0429 16.0615C16.0864 14.8071 15.0986 13.5055 14.0797 12.157C11.808 9.15075 10.4754 7.35154 10.0816 6.75938C9.98642 6.61629 9.90411 6.41198 9.83464 6.14646C9.79775 6.00545 9.74789 5.77336 9.68508 5.45019C9.61166 5.07246 9.55091 4.79485 9.50284 4.61736C9.42767 4.33983 9.34417 4.12412 9.25234 3.97023C9.23332 3.93834 9.21463 3.90627 9.19629 3.874C8.94388 3.43005 8.7557 2.94958 8.63174 2.43259C8.58187 2.22459 8.5403 2.00183 8.50703 1.76432C8.48793 1.62796 8.46636 1.44112 8.44232 1.20382C8.41807 0.964301 8.39774 0.803656 8.38134 0.721886C8.37152 0.67297 8.36144 0.635409 8.35107 0.609203C8.34986 0.606157 8.34879 0.603582 8.34787 0.601481C8.2803 0.528586 8.21854 0.482603 8.16257 0.463533C8.14488 0.457505 8.1335 0.455437 8.12844 0.45733C8.12471 0.458727 8.11966 0.464592 8.11329 0.474924C8.09648 0.502217 8.08807 0.53848 8.08809 0.583715L8.08821 0.92189L8.08877 2.47893C8.08888 2.79833 8.01074 3.05394 7.85435 3.24574C7.81003 3.3001 7.75941 3.34934 7.70251 3.39346C7.69543 3.39895 7.68827 3.40433 7.68104 3.40961C7.46571 3.5668 7.18278 3.63138 6.83224 3.60335C6.59322 3.58423 6.29694 3.51839 5.9434 3.40582C5.74334 3.34212 5.43316 3.23092 5.01286 3.07222C4.64312 2.9326 4.3713 2.83405 4.19741 2.77657C3.92077 2.68513 3.69212 2.62516 3.51144 2.59667C2.77107 2.4799 2.10541 2.44583 1.51448 2.49447C1.23202 2.51772 0.998662 2.55931 0.81442 2.61923C0.79222 2.62646 0.771214 2.63371 0.751402 2.64101C1.00969 2.66233 1.37456 2.67308 1.84598 2.67324C2.33924 2.67342 2.89239 2.76952 3.50543 2.96155C4.03314 3.12685 4.57487 3.3526 5.13061 3.6388C5.63409 3.89808 6.09047 4.17565 6.49975 4.4715C6.91535 4.77192 7.21357 5.04225 7.39441 5.28249C7.50553 5.43012 7.72616 5.7127 8.0563 6.13025C8.53334 6.7336 8.8895 7.19144 9.12478 7.50377C9.53501 8.04836 9.83974 8.48696 10.039 8.81958C10.296 9.24867 11.1487 10.8877 12.597 13.7367C13.2459 15.0131 13.877 16.2606 14.4903 17.4792L17.0429 16.0615Z"
                fill="rgba(151,151,151,1)" fill-opacity="0" fill-rule="evenodd"
                transform="matrix(0.97437,-0.224951,0.224951,0.97437,19.9213,17.9976)" />
            <path id="路径 16"
                d="M17.7236 16.1998C17.7236 16.1998 11.3942 7.90721 10.4618 6.50488C10.1354 6.01408 10.119 4.52902 9.64537 3.73513C8.69764 2.14654 9.03586 0.678636 8.69764 0.304588C8.1773 -0.270865 7.63236 0.0526245 7.63236 0.584006C7.63236 1.11539 7.63236 0.890472 7.63236 2.47906C7.63236 4.06765 5.06515 2.37972 3.58319 2.14654C2.10123 1.91336 0.584631 1.9876 0.178204 2.47906C-0.228224 2.97053 -0.0445319 3.13236 1.84586 3.13236C3.73625 3.13236 6.42895 4.76046 7.02877 5.55735C7.62859 6.35425 9.04051 8.04318 9.64537 9.05321C10.2502 10.0632 14.2917 18.1064 14.2917 18.1064L17.7236 16.1998Z"
                fill="rgba(251,219,207,1)" fill-rule="evenodd" transform="matrix(-1,0,0,1,99.2216,10.8345)" />
            <path id="路径 16"
                d="M17.4435 15.8325C17.6223 16.0671 17.7236 16.1998 17.7236 16.1998L17.3198 16.4242L14.6916 17.8842L14.2917 18.1064C14.2917 18.1064 14.2169 17.9575 14.0861 17.6977C13.2555 16.0479 10.1679 9.92581 9.64537 9.05321C9.04051 8.04318 7.62859 6.35425 7.02877 5.55735C6.42895 4.76046 3.73625 3.13236 1.84586 3.13236C-0.0445319 3.13236 -0.228224 2.97053 0.178204 2.47906C0.584631 1.9876 2.10123 1.91336 3.58319 2.14654C4.04516 2.21923 4.61259 2.43328 5.17483 2.64538C6.41623 3.11368 7.63236 3.57245 7.63236 2.47906L7.63236 0.584006C7.63236 0.0526245 8.1773 -0.270865 8.69764 0.304588C9.03586 0.678636 8.69764 2.14654 9.64537 3.73513C10.119 4.52902 10.1354 6.01408 10.4618 6.50488C11.2762 7.72982 16.2087 14.2121 17.4435 15.8325ZM17.0396 16.0569C16.0835 14.8029 15.0962 13.5019 14.0776 12.1538C11.8069 9.14861 10.4747 7.35001 10.0811 6.758C9.98596 6.61491 9.90369 6.4106 9.8343 6.14508C9.79746 6.0041 9.74768 5.77204 9.68497 5.4489C9.61168 5.07124 9.55103 4.79368 9.50302 4.61623C9.42795 4.33878 9.34454 4.12315 9.25278 3.96934C9.23391 3.93771 9.21537 3.90589 9.19717 3.87388C8.94466 3.42981 8.75648 2.94916 8.63263 2.43194C8.58283 2.22397 8.54133 2.00124 8.50813 1.76374C8.48908 1.62741 8.46758 1.4406 8.44362 1.2033C8.41945 0.963821 8.39918 0.803205 8.3828 0.721453C8.37301 0.672564 8.36294 0.63503 8.35259 0.608852C8.3514 0.605841 8.35035 0.603296 8.34943 0.60122C8.28196 0.528443 8.22028 0.482542 8.16438 0.463516C8.14668 0.457493 8.13528 0.455438 8.13017 0.457351C8.12634 0.458787 8.12121 0.464717 8.11478 0.47514C8.09793 0.502474 8.08951 0.538763 8.08951 0.584007L8.08951 0.922154L8.08951 2.47906C8.08951 2.79838 8.01131 3.05394 7.85491 3.24572C7.81058 3.30009 7.75995 3.34934 7.70304 3.39346C7.696 3.39892 7.68889 3.40427 7.6817 3.40952C7.46636 3.56678 7.18341 3.63146 6.83284 3.60355C6.59381 3.58452 6.29752 3.51879 5.94398 3.40635C5.74392 3.34273 5.43375 3.23164 5.01348 3.0731C4.64375 2.93363 4.37195 2.83518 4.19808 2.77777C3.92146 2.68644 3.69281 2.62656 3.51214 2.59813C2.77174 2.48163 2.10604 2.44781 1.51503 2.49665C1.23251 2.52 0.999103 2.56167 0.814801 2.62167C0.792632 2.62889 0.77165 2.63614 0.751858 2.64343C1.01012 2.66462 1.37479 2.67522 1.84586 2.67522C2.33916 2.67522 2.89232 2.77112 3.50535 2.96292C4.03306 3.12802 4.57476 3.35357 5.13046 3.63955C5.63391 3.89864 6.09024 4.17603 6.49946 4.47173C6.91503 4.772 7.21321 5.04224 7.39401 5.28244C7.50508 5.43 7.72562 5.71248 8.05565 6.12989C8.53252 6.73302 8.88855 7.1907 9.12374 7.50292C9.53381 8.04733 9.83842 8.4858 10.0376 8.81834C10.295 9.24828 11.1501 10.8927 12.6029 13.7515C13.2509 15.0267 13.8787 16.2681 14.4861 17.4754L17.0396 16.0569Z"
                fill="rgba(151,151,151,1)" fill-opacity="0" fill-rule="evenodd"
                transform="matrix(-1,0,0,1,99.2216,10.8345)" />
            <path id="路径 18"
                d="M2.76554 -8.29711e-15C2.76554 -8.29711e-15 1.55412 0.231836 0.781409 0.822044C0.00869441 1.41225 1.38179e-13 2.03604 1.38179e-13 2.03604C1.38179e-13 2.03604 5.63325 12.4202 6.32699 13.7648C7.02073 15.1094 7.77605 16.5983 9.67542 18.5964C11.5748 20.5945 19.6077 30.0402 19.6077 30.0402L24.3184 23.502C24.3184 23.502 13.9323 16.1535 13.009 14.765C12.0856 13.3765 11.2644 12.0674 10.0073 10.465C8.75006 8.86254 2.76554 -8.29711e-15 2.76554 -8.29711e-15Z"
                fill="rgba(0,103,208,1)" fill-rule="evenodd" transform="matrix(-1,0,0,1,88.9172,19.8877)" />
            <path id="路径 18"
                d="M3.03577 0L3.10413 0.101196C7.09033 6.00452 9.50391 9.49231 10.338 10.5555C11.1781 11.6262 11.7633 12.465 12.7676 13.9882L12.8303 14.0833C13.1471 14.5641 13.207 14.6549 13.3483 14.8673C13.9441 15.7633 17.7218 18.6816 24.6105 23.5557L24.7629 23.6636L24.6538 23.8151L19.943 30.3531L19.8049 30.5449L19.6517 30.3649C14.2992 24.071 10.9893 20.2572 9.72632 18.9287C8.14612 17.2664 7.45764 16.2059 6.34753 14.0544C5.88599 13.1598 3.77673 9.24976 0.0223389 2.3291L0 2.23828C0.00671387 1.75708 0.297974 1.30444 0.854126 0.879761C1.39368 0.467651 2.08154 0.182617 2.91589 0.0229492L3.03577 0ZM2.80786 0.423096L2.86621 0.410889C6.81799 6.26184 9.20947 9.7168 10.0468 10.7841C10.879 11.845 11.4594 12.6765 12.4584 14.1919L12.5211 14.287C12.7391 14.6179 12.8357 14.7643 12.9208 14.8927L12.9667 14.9619L13.0399 15.0723L13.0629 15.1056C13.7532 16.0825 17.4304 18.9235 24.1606 23.6908L24.2437 23.7494L19.7805 29.9451C14.5126 23.7518 11.2523 19.9963 9.99475 18.6736C8.44312 17.0413 7.77197 16.0077 6.67664 13.8846L6.65918 13.8508C6.16821 12.9036 4.11035 9.08862 0.48291 2.40149L0.372559 2.19836C0.395142 1.8623 0.625 1.52063 1.07886 1.17395C1.53198 0.827881 2.10767 0.577148 2.80786 0.423096Z"
                fill="rgba(2,75,166,1)" fill-rule="evenodd" transform="matrix(-1,0,0,1,89.1023,19.683)" />
            <path id="路径 20"
                d="M0.432782 11.8707C-0.958089 12.8573 2.12101 12.7454 2.12101 12.7454L7.34283 10.9956C7.34283 10.9956 8.19897 7.86627 8.56351 6.66472C8.92804 5.46316 9.89216 1.70659 9.89216 1.70659C9.89216 1.70659 9.87323 -8.75289e-15 7.78901 -4.19505e-15C5.7048 3.62781e-16 4.87981 2.80417 4.87981 2.80417C4.87981 2.80417 3.86213 6.65339 3.34301 8.55852C3.03024 9.70634 2.57698 10.1501 2.12101 10.5674C1.82018 10.8427 0.985659 11.4786 0.432782 11.8707Z"
                fill="rgba(251,219,207,1)" fill-rule="evenodd" transform="matrix(-1,0,0,1,68.3083,33.879)" />
            <path id="路径 20"
                d="M2.12101 12.7454C2.12101 12.7454 -0.958089 12.8573 0.432782 11.8707C0.985659 11.4786 1.82018 10.8427 2.12101 10.5674C2.57698 10.1501 3.03024 9.70634 3.34301 8.55852C3.86213 6.65339 4.87981 2.80417 4.87981 2.80417C4.87981 2.80417 5.7048 0 7.78901 0C9.87323 0 9.89216 1.70659 9.89216 1.70659C9.89216 1.70659 8.92804 5.46316 8.56351 6.66472C8.19897 7.86627 7.34283 10.9956 7.34283 10.9956L2.12101 12.7454ZM2.03979 12.2905L6.96632 10.6396C7.50451 8.67566 7.89109 7.30646 8.12605 6.532C8.27629 6.0368 8.54175 5.06572 8.92244 3.61876C9.10627 2.92 9.27599 2.26781 9.4316 1.66217C9.42765 1.62767 9.42035 1.58557 9.40968 1.53587C9.37652 1.3814 9.32146 1.24009 9.2445 1.11194C9.24103 1.10615 9.23751 1.1004 9.23395 1.09467C9.18695 1.01908 9.13308 0.950217 9.07234 0.888074C8.79151 0.600786 8.36374 0.457143 7.78901 0.457143C7.66004 0.457143 7.53397 0.470503 7.41079 0.497224C6.86045 0.616606 6.36797 1.00268 5.93334 1.65544C5.75507 1.92319 5.5983 2.21883 5.46304 2.54235C5.42088 2.64321 5.38359 2.74031 5.35117 2.83366C5.34135 2.86193 5.33266 2.88791 5.3251 2.9116C5.32367 2.91609 5.32221 2.92054 5.32073 2.92493L4.41766 6.32351L3.78445 8.67727C3.63095 9.24063 3.42386 9.71312 3.16319 10.0947C3.0556 10.2522 2.93217 10.4048 2.79288 10.5525C2.70255 10.6483 2.58147 10.7656 2.42964 10.9046C2.27596 11.0452 2.01609 11.2563 1.65002 11.5377C1.32879 11.7846 1.02616 12.0093 0.742119 12.2117C0.769177 12.2169 0.797649 12.2218 0.827536 12.2266C1.0547 12.263 1.33555 12.2842 1.67006 12.2904C1.81028 12.293 1.93352 12.293 2.03979 12.2905ZM5.31792 2.93307L5.31717 2.93521L5.31836 2.9332L5.31792 2.93307Z"
                fill="rgba(2,75,166,1)" fill-opacity="0" fill-rule="evenodd"
                transform="matrix(-1,0,0,1,68.3083,33.879)" />
            <path id="路径 46"
                d="M15.7252 3.72301C14.0028 1.63994 6.72719 6.97398e-16 4.87752 2.48286e-16C3.02785 -2.00825e-16 0.772821 1.27553 0.140129 2.55034C-0.492563 3.82516 1.05002 5.43802 4.10407 5.43802C7.15811 5.43802 7.18209 6.13791 9.78289 6.51118C12.3837 6.88446 17.4475 5.80609 15.7252 3.72301Z"
                fill="rgba(2,75,166,1)" fill-rule="evenodd" transform="matrix(-1,0,0,1,74.0789,64.3308)" />
            <path id="路径 46"
                d="M4.87752 0C6.72719 0 14.0028 1.63994 15.7252 3.72301C17.4475 5.80609 12.3837 6.88446 9.78289 6.51118C7.18209 6.13791 7.15811 5.43802 4.10407 5.43802C1.05002 5.43802 -0.492563 3.82516 0.140129 2.55034C0.772821 1.27553 3.02785 0 4.87752 0ZM3.57318 0.6583C4.03597 0.524195 4.47075 0.457143 4.87752 0.457143C5.33567 0.457143 6.05126 0.550666 7.02429 0.737712C8.08183 0.941004 9.14685 1.20134 10.2194 1.51871C11.4491 1.88261 12.4992 2.26852 13.3697 2.67644C14.3459 3.13389 15.0136 3.57985 15.3728 4.01432C15.5215 4.19408 15.6025 4.35553 15.6158 4.49868C15.6169 4.51004 15.6175 4.5214 15.6176 4.53276C15.6185 4.63046 15.5844 4.7285 15.5152 4.82688C15.4191 4.96347 15.2636 5.09761 15.0487 5.22929C14.825 5.3664 14.55 5.49228 14.2237 5.60693C13.5801 5.83303 12.8407 5.98774 12.0054 6.07105C11.1907 6.15232 10.4715 6.14819 9.84783 6.05868C9.39365 5.99349 8.97042 5.90982 8.57814 5.80767C8.34444 5.74682 8.03308 5.65267 7.64405 5.52523C7.36061 5.43238 7.14365 5.36451 6.99319 5.32163C6.73997 5.24945 6.49084 5.19071 6.2458 5.14541C5.65252 5.03572 4.93861 4.98088 4.10407 4.98088C3.4158 4.98088 2.79444 4.8968 2.23999 4.72863C1.74777 4.57934 1.34406 4.37589 1.02887 4.11828C0.755068 3.8945 0.578579 3.65604 0.499402 3.40289C0.463342 3.2876 0.450256 3.17435 0.460144 3.06314C0.469482 2.95813 0.499306 2.85494 0.549615 2.75357C0.679561 2.49174 0.894483 2.22474 1.19438 1.95255C1.49928 1.67583 1.85845 1.42436 2.27189 1.19815C2.69351 0.967465 3.12728 0.787513 3.57318 0.6583Z"
                fill="rgba(151,151,151,1)" fill-opacity="0" fill-rule="evenodd"
                transform="matrix(-1,0,0,1,74.0789,64.3308)" />
            <path id="形状结合"
                d="M37.5443 1.14673C37.0198 0.324951 35.5316 0 35.5316 0C35.5316 0 28.7731 5.9502 27.0332 7.03577C25.2935 8.12122 24.3175 9.49744 22.9664 10.4948C21.6155 11.4919 17.4662 12.7517 14.3713 14.4156C14.3218 14.4423 14.2593 14.4939 14.1857 14.5674C13.2552 14.9039 11.4149 15.6047 9.46912 16.5441C6.68726 17.887 5.69019 17.7013 5.39514 18.2629C5.1001 18.8246 3.47485 19.678 2.01819 20.6075C0.561523 21.537 -0.613647 23.2089 1.27539 25.4659C2.81128 27.3011 2.74377 28.1296 2.66492 29.0978C2.64685 29.3204 2.62805 29.5503 2.62805 29.8016C2.62805 31.146 0 38.8899 0 38.8899C0 38.8899 1.48865 37.454 3.97327 37.454C5.89636 37.454 7.29468 37.5538 10.4349 38.2273C11.6993 38.4985 14.8173 39.9165 14.8173 39.9165C14.8173 39.9165 11.1694 35.3499 11.9152 31.3319C12.3772 28.8422 14.0188 26.2717 15.2008 24.0869C17.7119 20.8818 23.6302 15.6202 25.3495 14.2992C27.3079 12.7944 28.0647 12.3015 29.3627 11.4116C30.6608 10.5217 37.8615 2.56116 37.8615 2.56116C37.8615 2.56116 38.069 1.96851 37.5443 1.14673Z"
                fill="rgba(0,103,208,1)" fill-rule="evenodd" transform="matrix(-1,0,0,1,73.6666,27.7063)" />
            <path id="形状结合"
                d="M35.9 0L35.9915 0.0200195C37.0275 0.246216 37.7408 0.652588 38.1208 1.24792C38.4984 1.83936 38.6166 2.36646 38.4565 2.82312L38.4192 2.88623C33.6021 8.21167 30.7716 11.1593 29.8878 11.7651C29.7574 11.8546 29.0703 12.3239 28.8827 12.4529L28.671 12.5989C27.8085 13.1958 27.038 13.7592 25.8828 14.6469C23.3365 16.6033 17.8506 21.7418 15.7828 24.3773C15.7036 24.5238 15.5441 24.8121 15.3718 25.1218L15.2771 25.2921L14.9612 25.8584L14.8855 25.9939L14.7161 26.2968C13.7864 27.9739 13.2318 29.1259 12.8494 30.2915C12.7046 30.7325 12.5936 31.1565 12.5176 31.5664C12.0314 34.186 12.9813 36.996 15.3823 40.0017L15.865 40.606L15.161 40.2858C13.094 39.3457 11.6426 38.7863 10.8165 38.609C7.95728 37.9958 6.55334 37.8398 4.3938 37.8398C2.78308 37.8398 1.505 38.3018 0.54895 39.2239L0 39.7533L0.245117 39.0311C1.98694 33.8984 2.86328 30.8679 2.86328 30.0024C2.86328 29.799 2.87305 29.626 2.89673 29.3331L2.90784 29.1962C3.00684 27.9572 2.78699 27.2589 1.55383 25.7854C-0.161987 23.7352 0.375488 21.905 2.33899 20.6522C2.49341 20.5536 2.65649 20.4515 2.83728 20.3402C5.05164 18.9751 5.40869 18.759 5.5542 18.5526L5.57178 18.5262C5.58557 18.5043 5.5979 18.4817 5.6106 18.4574L5.6261 18.4272L5.65161 18.3776C5.76904 18.1542 5.9613 18.0233 6.30859 17.8975C6.45386 17.8448 7.29651 17.5901 7.59082 17.4912C8.28455 17.2582 8.99231 16.9723 9.80908 16.578C11.4319 15.7947 13.0004 15.1349 14.5146 14.599L14.5325 14.5823C14.5795 14.5391 14.6229 14.5042 14.6639 14.4774L14.7041 14.4535C15.4828 14.0348 16.3633 13.6211 17.4177 13.1681C18.1949 12.8342 20.687 11.8199 20.9208 11.7219C22.1244 11.2168 22.8512 10.8608 23.277 10.5465C23.6606 10.2633 24.0194 9.94873 24.5122 9.47729C24.5186 9.47119 25.1959 8.81616 25.3999 8.62476C26.0925 7.97485 26.6774 7.50269 27.3557 7.07947C28.5032 6.36353 31.3333 4.02051 35.8297 0.0618896L35.9 0ZM3.54053 20.3446L3.98621 20.0737L3.99658 20.0675C4.37183 19.8389 4.63477 19.6743 4.86975 19.5194C5.48425 19.1145 5.83911 18.8169 5.97949 18.5497C6.04468 18.4254 6.16602 18.3429 6.43469 18.2456C6.56848 18.197 7.4054 17.9441 7.70874 17.8422C8.41675 17.6042 9.13904 17.3126 9.96997 16.9115C11.5945 16.1272 13.1631 15.4684 14.6758 14.9347L14.7443 14.8918C14.8038 14.833 14.851 14.7949 14.8794 14.7795C15.6472 14.3667 16.5186 13.9573 17.5638 13.5083C18.337 13.1761 20.8271 12.1627 21.0641 12.0634C22.2952 11.5468 23.0392 11.1823 23.4968 10.8445C23.8958 10.55 24.2649 10.2262 24.7682 9.74475C24.7762 9.73706 25.4517 9.08398 25.6533 8.89478C26.3297 8.26001 26.8967 7.80225 27.5518 7.39355L27.6097 7.35693C28.796 6.59875 31.5403 4.32678 35.8572 0.530884L36.0021 0.402466C36.9006 0.611694 37.4995 0.962891 37.8087 1.44714L37.8701 1.54688C38.1228 1.97375 38.2046 2.33447 38.1277 2.63293L38.1168 2.66809C33.35 7.93774 30.5239 10.8801 29.6785 11.4597L29.2397 11.7598L29.0707 11.8754L28.6727 12.1478L28.4604 12.2942C27.5927 12.8949 26.8171 13.4618 25.6571 14.3531C23.0883 16.327 17.5807 21.4858 15.4742 24.175C15.3895 24.3298 15.2266 24.6232 15.0522 24.9358L14.9084 25.1936C14.6421 25.6708 14.392 26.1177 14.3922 26.1172C13.4519 27.8132 12.889 28.9827 12.4974 30.176C12.3478 30.6322 12.2327 31.072 12.1534 31.4988L12.1237 31.6702C11.7242 34.1292 12.5227 36.729 14.5082 39.4656L14.6407 39.6464L14.5112 39.5889C12.8429 38.8538 11.6394 38.4067 10.8942 38.2469C8.01001 37.6284 6.58008 37.4696 4.39368 37.4696L4.20593 37.4716C2.90112 37.5001 1.797 37.8284 0.89856 38.4572L0.807617 38.5227L0.845337 38.4115C2.44055 33.6694 3.23352 30.8845 3.23352 30.0023C3.23352 29.8114 3.2428 29.6465 3.26587 29.363L3.27698 29.226C3.38367 27.8903 3.13354 27.0961 1.83777 25.5477C0.281982 23.6888 0.746338 22.1077 2.53821 20.9642C2.6908 20.8668 2.85242 20.7657 3.03149 20.6554C3.10974 20.6072 3.26038 20.5153 3.42004 20.418L3.54053 20.3446Z"
                fill="rgba(2,75,166,1)" fill-rule="evenodd" transform="matrix(-1,0,0,1,74.0872,27.5056)" />
        </g>
        <g id="02中景人物/表情/女/03">
            <path id="路径 50"
                d="M7.55651 11.7019C7.55651 11.7019 2.30238 10.7984 0.900067 8.26861C-0.502242 5.73878 -0.2301 4.24 1.46655 2.00403C3.1632 -0.231946 7.83136 -0.699078 9.76462 1.12275C11.6979 2.94458 7.55651 11.7019 7.55651 11.7019Z"
                fill="rgba(216,216,216,1)" fill-rule="evenodd"
                transform="matrix(0.992546,0.121869,-0.121869,0.992546,54.3314,27.2435)" />
            <path id="路径 50"
                d="M0.900067 8.26861C2.30238 10.7984 7.55651 11.7019 7.55651 11.7019C7.55651 11.7019 11.6979 2.94458 9.76462 1.12275C7.83136 -0.699078 3.1632 -0.231946 1.46655 2.00403C-0.2301 4.24 -0.502242 5.73878 0.900067 8.26861ZM7.29211 11.1847C7.152 11.1548 6.99494 11.1188 6.82094 11.0768C6.15161 10.9152 5.51482 10.7244 4.91056 10.5044C4.07358 10.1996 3.36265 9.86052 2.77777 9.48704C2.07644 9.03921 1.58382 8.55919 1.2999 8.04698C0.964689 7.44226 0.731177 6.89873 0.599361 6.41641C0.471049 5.94692 0.429828 5.49985 0.475698 5.07522C0.520717 4.65847 0.65402 4.2239 0.875607 3.7715C1.08968 3.33443 1.40806 2.83738 1.83072 2.28036C2.1962 1.7987 2.71943 1.39894 3.4004 1.08107C4.05936 0.773468 4.78394 0.57858 5.57414 0.496404C6.36108 0.414568 7.09766 0.45638 7.78389 0.62184C8.48503 0.790896 9.04077 1.06876 9.4511 1.45545C9.60878 1.60404 9.71654 1.84506 9.77438 2.17852C9.83542 2.53041 9.83752 2.96931 9.7807 3.49522C9.68069 4.42085 9.40419 5.57341 8.95121 6.95289C8.62439 7.94819 8.2247 9.0064 7.75214 10.1275C7.58146 10.5325 7.42812 10.8849 7.29211 11.1847Z"
                fill="rgba(151,151,151,1)" fill-opacity="0" fill-rule="evenodd"
                transform="matrix(0.992546,0.121869,-0.121869,0.992546,54.3314,27.2435)" />
            <path id="路径 10"
                d="M2.56272 0L5.7352 3.88104L5.83811 4.15982C6.80742 6.84259 6.51776 7.79664 4.96912 7.02199C3.36799 6.22108 1.71162 4.26871 0 1.16489L2.56272 0Z"
                fill="rgba(234,169,148,1)" fill-rule="evenodd"
                transform="matrix(0.992546,0.121869,-0.121869,0.992546,58.6697,35.1735)" />
            <path id="路径 10"
                d="M5.33284 4.11112L2.43151 0.561796L0.641921 1.37526C2.22017 4.14542 3.73074 5.89138 5.17364 6.61314C5.48225 6.76752 5.70776 6.83776 5.85014 6.82386C5.86415 6.8225 5.87472 6.82039 5.88183 6.81753L5.88145 6.81817C5.89019 6.81061 5.89985 6.78943 5.91042 6.75463C5.96119 6.5874 5.95094 6.31311 5.87967 5.93174C5.79926 5.50145 5.64245 4.96358 5.40926 4.31813L5.33284 4.11112ZM5.7352 3.88104L2.56272 0L0 1.16489C0.0747961 1.30052 0.149486 1.43396 0.22407 1.56519C1.85628 4.43714 3.43796 6.25607 4.96912 7.02199C5.52595 7.30052 5.92001 7.35556 6.15131 7.18712C6.5633 6.88708 6.4589 5.87798 5.83811 4.15982L5.7352 3.88104Z"
                fill="rgba(151,151,151,1)" fill-opacity="0" fill-rule="evenodd"
                transform="matrix(0.992546,0.121869,-0.121869,0.992546,58.6697,35.1735)" />
            <path id="路径 9"
                d="M1.65706 1.35851C1.95181 0.699577 3.34452 -0.256119 3.99304 0.0636504C5.26579 0.691217 6.01821 1.29339 6.60104 2.42485C7.17141 3.53212 8.42993 4.42155 10.3766 5.09313L9.10656 6.31508C9.57404 7.88286 9.62914 9.04131 9.27185 9.79042C8.73592 10.9141 7.06201 11.6003 5.06652 10.7402C3.70688 10.1542 3.45891 9.5074 2.81391 8.45162C2.66097 8.20127 2.67559 11.4674 0.388195 8.45162C-0.773385 6.65177 0.93545 5.80302 2.06012 6.79107C2.56413 6.3151 2.43965 5.7589 2.24635 4.76652C2.0747 3.88528 0.923771 2.46228 1.65706 1.35851Z"
                fill="rgba(251,219,207,1)" fill-rule="evenodd"
                transform="matrix(0.992546,0.121869,-0.121869,0.992546,59.0808,28.1978)" />
            <path id="路径 9"
                d="M9.10656 6.31508L10.0081 5.44765L10.3766 5.09313C10.2124 5.03648 10.0531 4.97829 9.89871 4.91855C8.22252 4.26996 7.1233 3.43873 6.60104 2.42485C6.01821 1.29339 5.26579 0.691217 3.99304 0.0636504C3.34452 -0.256119 1.95181 0.699577 1.65706 1.35851C1.14207 2.13369 1.55643 3.06632 1.90823 3.85816C2.05736 4.19382 2.19525 4.50418 2.24635 4.76652C2.25137 4.79228 2.25634 4.81774 2.26126 4.84292C2.39886 5.5478 2.49244 6.02722 2.32723 6.41778C2.29934 6.48371 2.26407 6.54711 2.22039 6.60864C2.17601 6.67116 2.12295 6.73174 2.06012 6.79107C0.93545 5.80302 -0.773385 6.65177 0.388195 8.45162C1.90551 10.4521 2.4099 9.68842 2.62218 9.02057C2.63789 8.97116 2.652 8.92227 2.66479 8.87507C2.685 8.80055 2.70195 8.73023 2.71679 8.66865C2.75704 8.50166 2.78177 8.39902 2.81391 8.45162C2.89356 8.582 2.96716 8.70615 3.03755 8.82471C3.06393 8.86914 3.08985 8.91279 3.11548 8.95569C3.57515 9.72525 3.93771 10.2536 5.06652 10.7402C7.06201 11.6003 8.73592 10.9141 9.27185 9.79042C9.62914 9.04131 9.57404 7.88286 9.10656 6.31508ZM0.763129 8.18945C1.14567 8.69209 1.46942 9.02579 1.73439 9.19055C1.8183 9.24272 1.88692 9.27241 1.94025 9.27961C1.95555 9.28168 1.96628 9.28121 1.97243 9.2782C2.06858 9.23117 2.16856 8.99228 2.27237 8.56154C2.30118 8.442 2.32414 8.3598 2.34123 8.31496C2.37592 8.22396 2.42573 8.15056 2.49067 8.09477C2.50696 8.08078 2.52419 8.0679 2.54238 8.05613C2.57688 8.03379 2.613 8.0164 2.65076 8.00396C2.68575 7.99243 2.72213 7.98516 2.75992 7.98213C2.8022 7.97873 2.84345 7.98082 2.88367 7.98838C2.92536 7.99621 2.96594 8.00993 3.00542 8.02952C3.03728 8.04534 3.0667 8.06417 3.09369 8.08601C3.13665 8.1208 3.17343 8.16323 3.20402 8.2133C3.25595 8.29832 3.32862 8.41949 3.42201 8.57682C3.57876 8.84088 3.69514 9.02955 3.77114 9.14283C3.88779 9.31671 4.00361 9.46409 4.11859 9.58497C4.38608 9.86616 4.76237 10.1113 5.24746 10.3204C5.68333 10.5082 6.11083 10.6205 6.52998 10.6573C6.90829 10.6904 7.26295 10.6609 7.59397 10.5688C7.89739 10.4844 8.16115 10.3533 8.38527 10.1756C8.58262 10.0191 8.73379 9.83888 8.83879 9.63487C8.84581 9.62123 8.85263 9.60748 8.85924 9.59362C9.0049 9.28822 9.06578 8.88417 9.04187 8.38147C9.01608 7.8393 8.89162 7.19405 8.66848 6.44571C8.64403 6.36374 8.6427 6.2814 8.66448 6.19869C8.68626 6.11597 8.72797 6.04496 8.78961 5.98566L9.53685 5.2667C7.86218 4.58616 6.74811 3.70866 6.19464 2.63419C5.93917 2.13824 5.62543 1.72623 5.2534 1.39816C4.90468 1.09064 4.41717 0.782475 3.79087 0.47366C3.73589 0.446548 3.64016 0.449548 3.50369 0.48266C3.32948 0.524928 3.13779 0.60919 2.92861 0.735444C2.72244 0.859887 2.53758 1.00169 2.37403 1.16085C2.2232 1.30763 2.1233 1.43574 2.07435 1.54517C2.0692 1.5567 2.06357 1.568 2.05747 1.57907C2.05137 1.59014 2.04483 1.60094 2.03783 1.61147C2.02344 1.63314 2.00999 1.65533 1.99749 1.67804C1.87256 1.90499 1.84219 2.184 1.90638 2.51506C1.93822 2.67926 1.99456 2.86755 2.07539 3.07992C2.12596 3.21277 2.20949 3.41032 2.326 3.67255C2.42637 3.89847 2.49766 4.06546 2.53987 4.17352C2.61529 4.36661 2.66702 4.53515 2.69506 4.67912C2.69836 4.69604 2.70331 4.72144 2.70993 4.75533C2.76946 5.06031 2.80913 5.27985 2.82892 5.41397C2.86327 5.64677 2.87722 5.84712 2.87075 6.01502C2.86153 6.25471 2.80866 6.47302 2.71217 6.66995C2.63061 6.83638 2.51788 6.98755 2.37399 7.12344C2.2882 7.20445 2.18631 7.24602 2.06833 7.24814C1.95036 7.25027 1.84704 7.21239 1.7584 7.13451C1.58621 6.98323 1.40282 6.88825 1.20824 6.84956C1.17703 6.84335 1.14552 6.83859 1.11373 6.83528C0.940746 6.81727 0.795539 6.8444 0.678108 6.91666C0.664805 6.92485 0.651859 6.93361 0.63927 6.94296C0.604685 6.96863 0.575026 6.99798 0.550291 7.03103C0.493874 7.1064 0.463078 7.20094 0.457906 7.31467C0.446679 7.56149 0.54842 7.85309 0.763129 8.18945Z"
                fill="rgba(151,151,151,1)" fill-opacity="0" fill-rule="evenodd"
                transform="matrix(0.992546,0.121869,-0.121869,0.992546,59.0808,28.1978)" />
            <path id="路径"
                d="M0.165437 0.134853C0.319193 -0.0130809 0.555865 -0.0330492 0.867142 0.0444881C0.964892 0.0688369 1.0244 0.167817 1.00005 0.265567C0.975697 0.363317 0.876717 0.42282 0.778967 0.398471C0.577017 0.348167 0.459586 0.358075 0.418365 0.397735C0.372636 0.441732 0.34926 0.576581 0.376059 0.804548C0.38782 0.904595 0.31625 0.995235 0.216202 1.007C0.116154 1.01876 0.0255149 0.947186 0.0137538 0.847138C-0.0250987 0.516634 0.0161891 0.27845 0.165437 0.134853Z"
                fill="rgba(57,57,57,1)" fill-rule="evenodd"
                transform="matrix(0.992546,0.121869,-0.121869,0.992546,63.705,31.6802)" />
            <path id="路径"
                d="M0.172233 0.131598C0.504591 -0.188174 0.829986 0.0948544 1.12572 0.763513C1.16647 0.855641 1.12481 0.963357 1.03269 1.0041C0.940558 1.04485 0.832842 1.0032 0.792095 0.911069C0.676952 0.65073 0.571616 0.481147 0.486528 0.407138C0.445169 0.371164 0.449303 0.371251 0.425161 0.39448C0.313819 0.501605 0.349592 0.785954 0.596067 1.25741C0.642738 1.34668 0.608203 1.45689 0.51893 1.50356C0.429657 1.55023 0.319453 1.51569 0.272781 1.42642C-0.0416696 0.824944 -0.0963821 0.390043 0.172233 0.131598Z"
                fill="rgba(57,57,57,1)" fill-rule="evenodd"
                transform="matrix(0.992546,0.121869,-0.121869,0.992546,64.3728,32.97)" />
            <path id="路径"
                d="M1.05943 0.00837121C1.15557 -0.0217107 1.25789 0.0318403 1.28797 0.127981C1.31805 0.224121 1.2645 0.326444 1.16836 0.356526L0.236917 0.647971C0.140776 0.678053 0.0384531 0.624502 0.00837121 0.528362C-0.0217107 0.432221 0.0318403 0.329898 0.127981 0.299816L1.05943 0.00837121Z"
                fill="rgba(146,51,55,1)" fill-rule="evenodd"
                transform="matrix(0.992546,0.121869,-0.121869,0.992546,65.998,35.9817)" />
            <path id="路径"
                d="M0.316223 0.0913614C0.366519 0.00407918 0.478048 -0.025904 0.565331 0.0243921C0.652613 0.0746882 0.682596 0.186217 0.6323 0.2735L0.340469 0.779934C0.290173 0.867216 0.178644 0.897199 0.0913614 0.846903C0.00407919 0.796607 -0.025904 0.685078 0.0243921 0.597796L0.316223 0.0913614Z"
                fill="rgba(234,169,148,1)" fill-rule="evenodd"
                transform="matrix(0.992546,0.121869,-0.121869,0.992546,66.4659,36.5853)" />
        </g>
        <g id="中景人物/发型/女/03">
            <path id="路径 15"
                d="M1.09194 1.26569C0.00731623 2.26258 -0.584707 5.79473 0.844085 7.97445C2.27288 10.1542 2.83369 9.40197 3.27507 11.0075C3.47798 11.7455 2.42226 12.9632 1.62936 13.6288C6.69607 12.5817 10.5348 10.3843 10.5348 7.40801C10.5348 5.75624 8.47275 4.53729 6.28663 1.67712C4.10052 -1.18305 2.17657 0.268799 1.09194 1.26569Z"
                fill="rgba(57,57,57,1)" fill-rule="evenodd" transform="matrix(-1,0,0,1,62.8634,26.252)" />
            <path id="路径 15"
                d="M0.844085 7.97445C-0.584707 5.79473 0.00731623 2.26258 1.09194 1.26569C2.17657 0.268799 4.10052 -1.18305 6.28663 1.67712C8.47275 4.53729 10.5348 5.75624 10.5348 7.40801C10.5348 10.2095 7.1337 12.3209 2.50877 13.4325C2.22022 13.5018 1.92691 13.5673 1.62936 13.6288C1.83449 13.4566 2.05722 13.2474 2.27119 13.0192C2.88428 12.3652 3.42549 11.5546 3.27507 11.0075C2.83369 9.40197 2.27288 10.1542 0.844085 7.97445ZM3.03772 12.827C3.72912 12.6421 4.38277 12.4348 4.99868 12.2052C6.06301 11.8085 6.97349 11.3602 7.73012 10.8604C8.49929 10.3523 9.08214 9.80888 9.47867 9.23004C9.80177 8.7584 9.99415 8.27075 10.0558 7.76709C10.0704 7.64829 10.0776 7.52859 10.0776 7.40801C10.0776 7.21263 10.0387 7.01406 9.96089 6.81232C9.88411 6.61326 9.76439 6.39772 9.60173 6.16569C9.45443 5.95557 9.25569 5.71005 9.0055 5.42913C8.84806 5.25235 8.5843 4.96875 8.21424 4.57833C7.74383 4.08206 7.38024 3.68991 7.12345 3.40186C6.6845 2.90949 6.28449 2.42711 5.92343 1.95473C5.17053 0.969684 4.40956 0.470774 3.64051 0.457998C3.54126 0.456349 3.44187 0.462797 3.34234 0.477343C3.00865 0.526114 2.66044 0.664937 2.29772 0.893813C2.03056 1.06239 1.73175 1.29854 1.40129 1.60227C1.18372 1.80224 0.99122 2.13004 0.823807 2.58565C0.644289 3.0742 0.530052 3.61694 0.481095 4.21388C0.428548 4.8546 0.460205 5.46951 0.576066 6.05861C0.702146 6.69968 0.918928 7.25475 1.22641 7.72384C1.51232 8.16001 1.79072 8.51618 2.06161 8.79234C2.21527 8.94899 2.41608 9.12156 2.66406 9.31006C2.7998 9.41325 2.89985 9.49324 2.9642 9.55005C3.0785 9.65094 3.17718 9.75678 3.26025 9.86756C3.44502 10.114 3.59689 10.4535 3.71586 10.8863C3.84611 11.3601 3.67399 11.9341 3.1995 12.6084C3.14842 12.681 3.0945 12.7538 3.03772 12.827Z"
                fill="rgba(151,151,151,1)" fill-opacity="0" fill-rule="evenodd"
                transform="matrix(-1,0,0,1,62.8634,26.252)" />
        </g>
        <g id="中景人物/下肢/女/04">
            <g id="编组 7">
                <path id="路径 2"
                    d="M7.62213 -1.20629e-15C7.62213 -1.20629e-15 12.3079 0.385079 15.8019 2.27557C19.2959 4.16606 27.6727 11.16 31.5547 12.5385C35.4366 13.9171 36.7328 15.2579 36.7328 15.2579C36.7328 15.2579 41.3165 21.2553 40.4743 22.5464C39.6322 23.8376 35.269 19.2653 33.5138 17.8448C31.7585 16.4243 30.3417 15.8435 26.7945 13.8877C23.2473 11.9319 16.8837 10.3718 13.6199 9.00142C10.3561 7.63104 -2.5056e-15 2.13254 -2.5056e-15 2.13254L7.62213 -1.20629e-15Z"
                    fill="rgba(251,219,207,1)" fill-rule="evenodd"
                    transform="matrix(-0.913545,-0.406737,-0.406737,0.913545,51.9578,96.0394)" />
                <path id="路径 2"
                    d="M12.9087 1.55729C13.9163 1.88419 14.8081 2.25764 15.5844 2.67763C16.1927 3.00677 17.0471 3.55137 18.1476 4.31141C18.8208 4.77637 19.9271 5.56437 21.4665 6.6754C22.665 7.54042 23.5664 8.18658 24.1708 8.61386C25.1874 9.3326 26.0793 9.94508 26.8467 10.4513C28.8174 11.7515 30.3358 12.5908 31.4017 12.9693C32.9876 13.5325 34.3059 14.1436 35.3566 14.8025C35.6784 15.0042 35.9536 15.1975 36.1823 15.3824C36.2761 15.4582 36.3445 15.5171 36.3876 15.559C36.5723 15.8014 36.7978 16.1088 37.064 16.4811C37.614 17.2501 38.1034 17.9766 38.532 18.6607C39.1258 19.6083 39.5562 20.4012 39.8233 21.0394C39.9733 21.3977 40.0667 21.6956 40.1037 21.9328C40.1203 22.04 40.1247 22.1296 40.1167 22.2016C40.1117 22.2468 40.1033 22.2785 40.0914 22.2967C40.0904 22.2983 40.0893 22.2998 40.088 22.3011C40.082 22.3076 40.0735 22.3118 40.0625 22.3136C39.9982 22.3242 39.9026 22.309 39.776 22.268C39.4676 22.1681 39.0549 21.9332 38.538 21.5633C38.0971 21.2478 37.5677 20.8227 36.9496 20.2881C36.5833 19.9713 36.0482 19.4927 35.3445 18.8524C34.5876 18.1638 34.0732 17.7095 33.8013 17.4894C33.198 17.0011 32.5409 16.5439 31.83 16.1179C31.5217 15.9332 31.1546 15.7242 30.7287 15.4909C30.4665 15.3473 30.0343 15.1148 29.4319 14.7935C28.4471 14.268 27.6415 13.8327 27.0152 13.4874C26.0274 12.9427 24.7036 12.366 23.044 11.7573C22.3947 11.5192 21.6468 11.2586 20.8004 10.9756C20.2971 10.8073 19.5481 10.562 18.5536 10.2397C17.3556 9.85147 16.4869 9.56497 15.9474 9.38019C15.0625 9.0771 14.3457 8.81034 13.7969 8.57992C12.4489 8.01396 9.78446 6.70428 5.80342 4.65085C4.19178 3.81957 2.66599 3.02402 1.22604 2.26421L7.66511 0.462671C7.84295 0.479206 8.0708 0.505938 8.34865 0.542866C8.99632 0.628944 9.64983 0.740162 10.3092 0.876521C11.2309 1.06713 12.0974 1.29406 12.9087 1.55729ZM7.62213 0C7.62213 0 12.3079 0.385079 15.8019 2.27557C19.2959 4.16606 27.6727 11.16 31.5547 12.5385C35.4366 13.9171 36.7328 15.2579 36.7328 15.2579C36.7328 15.2579 41.3165 21.2553 40.4743 22.5464C39.8229 23.5451 37.0651 21.0359 35.0369 19.1906C34.4428 18.6501 33.9114 18.1666 33.5138 17.8448C31.7585 16.4243 30.3417 15.8435 26.7945 13.8877C23.2473 11.9319 16.8837 10.3718 13.6199 9.00142C10.8239 7.82745 2.82289 3.62389 0.586838 2.44305C0.212736 2.24549 0 2.13254 0 2.13254L7.62213 0Z"
                    fill="rgba(151,151,151,1)" fill-opacity="0" fill-rule="evenodd"
                    transform="matrix(-0.913545,-0.406737,-0.406737,0.913545,51.9578,96.0394)" />
                <path id="路径 45"
                    d="M5.89114e-17 0.494996C5.89114e-17 0.494996 2.68322 4.35295 4.11405 5.56895C5.54487 6.78495 4.86609 9.98329 4.86609 9.98329C4.86609 9.98329 6.5177 12.6165 7.00666 13.3961C7.49561 14.1756 8.47408 14.1174 8.45502 12.9879C8.43596 11.8583 8.51629 8.51263 8.47143 7.52615C8.42656 6.53966 7.61494 5.38146 7.07276 4.90662C6.53058 4.43177 5.11066 3.53036 4.58659 2.69482L7.27431 2.50351C7.27431 2.50351 7.66177 2.27327 7.67628 1.8456C7.69079 1.41793 7.23259 1.1382 7.23259 1.1382C7.23259 1.1382 3.63843 0.437184 2.69791 0.104742C1.75739 -0.227699 5.89114e-17 0.494996 5.89114e-17 0.494996Z"
                    fill="rgba(93,94,93,1)" fill-rule="evenodd"
                    transform="matrix(-0.913546,-0.406736,-0.406737,0.913545,15.7074,93.9434)" />
                <path id="路径 45"
                    d="M5.12207 2.6567L7.27431 2.50351C7.27431 2.50351 7.66177 2.27327 7.67628 1.8456C7.69079 1.41793 7.23259 1.1382 7.23259 1.1382C7.23259 1.1382 3.63843 0.437184 2.69791 0.104742C2.05467 -0.122621 1.02934 0.143552 0.445433 0.334532C0.175575 0.422794 0 0.494996 0 0.494996C0 0.494996 0.0999887 0.638761 0.271655 0.879533C0.989268 1.88603 2.95943 4.58769 4.11405 5.56895C5.54487 6.78495 4.86609 9.98329 4.86609 9.98329L7.00666 13.3961C7.49561 14.1756 8.47408 14.1174 8.45502 12.9879C8.44683 12.5022 8.457 11.6069 8.4677 10.6656C8.48189 9.41752 8.497 8.0885 8.47143 7.52615C8.42656 6.53966 7.61494 5.38146 7.07276 4.90662C6.62374 4.51337 5.57272 3.82755 4.92711 3.12888C4.79315 2.98391 4.67664 2.83839 4.58659 2.69482L5.12207 2.6567ZM5.34971 9.894L7.39393 13.1532C7.47067 13.2755 7.55908 13.3637 7.65916 13.4178C7.72742 13.4546 7.78605 13.4684 7.83506 13.459C7.83691 13.4586 7.83875 13.4582 7.84058 13.4577C7.87053 13.4502 7.89691 13.4284 7.91971 13.3926C7.97486 13.3058 8.00094 13.1735 7.99794 12.9956C7.99241 12.6675 7.99662 11.8891 8.01059 10.6604C8.03002 8.95097 8.03141 7.91314 8.01476 7.54692C7.99762 7.17019 7.84737 6.73968 7.56402 6.25537C7.4421 6.047 7.30647 5.84973 7.15714 5.66357C7.02161 5.49462 6.89309 5.35694 6.77157 5.25052C6.67918 5.1696 6.48129 5.01468 6.1779 4.78574C5.70635 4.4299 5.35357 4.14999 5.11957 3.94602C4.69622 3.57699 4.38948 3.24089 4.19932 2.93772L3.79486 2.29287L7.10333 2.05738C7.11188 2.04897 7.12016 2.04025 7.12818 2.03123C7.18599 1.96619 7.21636 1.89996 7.21931 1.83253L7.2194 1.83011C7.22123 1.77618 7.18899 1.71287 7.12268 1.6402C7.09703 1.6121 7.07233 1.58803 7.04856 1.56801C6.47501 1.45552 5.86634 1.33059 5.22255 1.19322C3.84842 0.900013 2.95609 0.680858 2.54557 0.535753C2.3899 0.480729 2.17876 0.462628 1.91216 0.481451C1.6748 0.49821 1.40666 0.543909 1.10773 0.618548C0.980524 0.650311 0.852024 0.686181 0.722232 0.726159C1.0763 1.22211 1.46364 1.74643 1.88425 2.29913C2.99713 3.76151 3.83907 4.73534 4.41009 5.22061C4.80755 5.5584 5.09551 6.03269 5.27398 6.64348C5.40808 7.10244 5.478 7.63052 5.48375 8.22772C5.48777 8.64533 5.46091 9.07717 5.40315 9.52325C5.3838 9.67274 5.36599 9.79633 5.34971 9.894Z"
                    fill="rgba(151,151,151,1)" fill-opacity="0" fill-rule="evenodd"
                    transform="matrix(-0.913546,-0.406736,-0.406737,0.913545,15.7074,93.9434)" />
            </g>
            <g id="编组 8">
                <path id="路径 3"
                    d="M6.24996 0.933568C6.24996 0.933568 6.56138 6.13516 8.55756 11.5859C10.5537 17.0366 6.71119 28.7448 7.1174 31.6774C7.52362 34.61 8.35227 36.4922 8.35227 36.4922C8.35227 36.4922 4.84371 39.4359 3.90099 40.9748C2.95827 42.5138 1.76231 42.8869 1.76231 42.8869C1.76231 42.8869 2.52963 37.0229 2.97616 34.2981C3.42269 31.5733 2.78666 19.9234 2.33197 16.6408C1.87727 13.3581 -1.95321e-16 -5.27911e-17 -1.95321e-16 -5.27911e-17L6.24996 0.933568Z"
                    fill="rgba(251,219,207,1)" fill-rule="evenodd" transform="matrix(-1,0,0,1,68.1588,105.59)" />
                <path id="路径 3"
                    d="M6.20416 4.29022C6.64533 6.96077 7.28671 9.44506 8.1283 11.7431C8.6671 13.2144 8.80937 15.3705 8.55509 18.2116C8.45579 19.3211 8.29062 20.5943 8.05959 22.0311C7.92296 22.8809 7.7061 24.1119 7.40901 25.7243C7.25086 26.5826 7.13714 27.2095 7.06785 27.6048C6.95326 28.2587 6.86371 28.8128 6.79919 29.2671C6.63815 30.401 6.59328 31.2254 6.66458 31.7401C6.83722 32.9864 7.09912 34.1794 7.45029 35.3191C7.56057 35.677 7.67342 36.0086 7.78884 36.3139C7.79439 36.3286 7.79988 36.3431 7.80531 36.3573C7.7102 36.4391 7.60466 36.5306 7.48869 36.6318C7.0267 37.0351 6.58657 37.4319 6.1683 37.8221C4.81134 39.0881 3.92563 40.0594 3.51117 40.736C3.17984 41.277 2.78741 41.7148 2.33389 42.0497C2.43161 41.3149 2.53854 40.5238 2.65469 39.6764C2.98434 37.2716 3.24187 35.5035 3.42728 34.372C3.53674 33.7041 3.5893 32.5301 3.58497 30.8501C3.58118 29.3816 3.53577 27.6511 3.44873 25.6587C3.36853 23.8227 3.26667 22.0591 3.14317 20.3681C3.01929 18.6719 2.89982 17.4085 2.78479 16.578L1.67146 8.61753L0.537795 0.542546L5.82173 1.33182C5.83569 1.49125 5.85351 1.67378 5.87519 1.87941C5.95664 2.65206 6.0663 3.45566 6.20416 4.29022ZM6.24996 0.933568C6.24996 0.933568 6.56138 6.13516 8.55756 11.5859C9.8358 15.0762 8.71993 21.1324 7.85859 25.8071C7.3748 28.4328 6.97131 30.6227 7.1174 31.6774C7.52362 34.61 8.35227 36.4922 8.35227 36.4922C8.35227 36.4922 4.84371 39.4359 3.90099 40.9748C3.33999 41.8907 2.68932 42.3936 2.25436 42.6508C1.9584 42.8257 1.76231 42.8869 1.76231 42.8869C1.76231 42.8869 1.7876 42.6936 1.83168 42.3609C2.03036 40.8611 2.6107 36.5282 2.97616 34.2981C3.42269 31.5733 2.78666 19.9234 2.33197 16.6408C1.92833 13.7267 0.403662 2.87293 0.0663401 0.472124C0.0236708 0.168434 0 0 0 0L6.24996 0.933568Z"
                    fill="rgba(151,151,151,1)" fill-opacity="0" fill-rule="evenodd"
                    transform="matrix(-1,0,0,1,68.1588,105.59)" />
                <path id="路径 45"
                    d="M8.06235 1.56158e-16C8.06235 1.56158e-16 5.99388 3.89039 5.63608 5.62835C5.27827 7.36632 2.10385 8.05225 2.10385 8.05225C2.10385 8.05225 0.601638 10.5503 0.156913 11.2899C-0.287812 12.0294 0.255691 12.862 1.24669 12.3934C2.23769 11.9248 5.24174 10.6565 6.09303 10.2226C6.94432 9.78863 7.56224 8.61537 7.71028 7.95118C7.85832 7.28698 7.94295 5.68442 8.41962 4.89175L9.94034 7.16601C9.94034 7.16601 10.3391 7.41279 10.7252 7.25437C11.1113 7.09595 11.1288 6.58327 11.1288 6.58327C11.1288 6.58327 9.94279 3.1592 9.76443 2.20358C9.58606 1.24795 8.06235 1.56158e-16 8.06235 1.56158e-16Z"
                    fill="rgba(93,94,93,1)" fill-rule="evenodd" transform="matrix(-1,0,0,1,68.5499,139.15)" />
                <path id="路径 45"
                    d="M8.71041 5.32664L9.94034 7.16601C9.94034 7.16601 10.3391 7.41279 10.7252 7.25437C11.1113 7.09595 11.1288 6.58327 11.1288 6.58327C11.1288 6.58327 9.94279 3.1592 9.76443 2.20358C9.6412 1.54335 8.87581 0.743599 8.4144 0.312247C8.20795 0.119248 8.06235 0 8.06235 0C8.06235 0 7.98026 0.154392 7.84596 0.415403C7.30611 1.46461 5.9226 4.23661 5.63608 5.62835C5.27827 7.36632 2.10385 8.05225 2.10385 8.05225L0.156913 11.2899C-0.287812 12.0294 0.255691 12.862 1.24669 12.3934C2.23769 11.9248 5.24174 10.6565 6.09303 10.2226C6.94432 9.78863 7.56224 8.61537 7.71028 7.95118C7.83187 7.40567 7.91068 6.2272 8.19904 5.3843C8.26178 5.20091 8.33444 5.0334 8.41962 4.89175L8.71041 5.32664ZM2.39695 8.45193L1.46084 10.0086L0.548677 11.5255C0.485534 11.6305 0.455056 11.732 0.457243 11.83C0.458832 11.9012 0.477356 11.9579 0.512815 11.9999C0.516154 12.0039 0.519655 12.0077 0.523316 12.0113C0.554986 12.0427 0.598686 12.0621 0.654415 12.0693C0.763455 12.0834 0.895743 12.0536 1.05128 11.9801C1.33938 11.8439 2.03126 11.536 3.12691 11.0566C4.65038 10.3899 5.56989 9.97611 5.88543 9.81527C6.20258 9.65362 6.5014 9.35665 6.78189 8.92438C6.89617 8.74827 6.99581 8.56559 7.08082 8.37633C7.08596 8.36487 7.09106 8.35338 7.0961 8.34187C7.17584 8.1598 7.23184 7.99642 7.26409 7.85173C7.28896 7.74013 7.32642 7.50664 7.37647 7.15123C7.45482 6.59492 7.52568 6.17286 7.58906 5.88505C7.7047 5.35996 7.85096 4.95033 8.02785 4.65617L8.39915 4.03872L10.2526 6.81056C10.2706 6.81713 10.2905 6.82353 10.3125 6.82975C10.4085 6.85692 10.4882 6.85748 10.5517 6.83144C10.5867 6.81708 10.6165 6.77534 10.6411 6.70624C10.6495 6.68248 10.6565 6.65765 10.6619 6.63177C10.4741 6.08773 10.2798 5.5084 10.079 4.89379C9.64768 3.57411 9.39304 2.70533 9.31504 2.28745C9.28564 2.12992 9.19504 1.93753 9.04324 1.71026C8.90783 1.50752 8.73104 1.28942 8.51287 1.05595C8.41227 0.948295 8.30659 0.841254 8.19584 0.734828C8.17804 0.769641 8.15975 0.80551 8.14095 0.842433C7.87699 1.3609 7.62893 1.86597 7.39677 2.35763C6.66321 3.91112 6.22556 5.03209 6.08383 5.72054C6.07894 5.74429 6.07364 5.76795 6.06792 5.79151C5.95405 6.26119 5.67707 6.69133 5.23698 7.08192C4.89437 7.38599 4.45835 7.66082 3.9289 7.90639C3.56009 8.07746 3.16324 8.2271 2.73834 8.35532C2.61257 8.39328 2.49877 8.42548 2.39695 8.45193Z"
                    fill="rgba(151,151,151,1)" fill-opacity="0" fill-rule="evenodd"
                    transform="matrix(-1,0,0,1,68.5499,139.15)" />
            </g>
            <g id="编组 9">
                <path id="路径"
                    d="M0.0748139 6.06107C0.288456 9.11629 0.586484 10.8799 2.33375 19.9017C3.17414 24.241 3.99128 30.3739 4.72636 36.8924C5.66079 45.1787 4.50467 45.2957 6.0641 46.4065C9.17485 48.6224 14.5307 48.7195 19.0377 43.4135C23.5447 38.1076 36.2755 37.1347 39.5097 30.1172C42.7439 23.0996 41.662 21.5306 40.6145 21.5059C31.0119 21.2794 29.3462 16.4255 27.2002 14.4289C22.4592 10.018 19.7968 7.28635 16.2254 4.93171C12.654 2.57707 11.5349 2.09053 9.96895 1.30204C8.40299 0.513551 4.8869 -0.496792 2.42107 0.277459C-0.04476 1.05171 -0.138828 3.00584 0.0748139 6.06107Z"
                    fill="rgba(129,129,129,1)" fill-rule="evenodd"
                    transform="matrix(-0.997564,0.0697565,0.0697565,0.997564,71.7926,65.6722)" />
                <path id="路径"
                    d="M2.33375 19.9017C0.586484 10.8799 0.288456 9.11629 0.0748139 6.06107C-0.138828 3.00584 -0.04476 1.05171 2.42107 0.277459C4.8869 -0.496792 8.40299 0.513551 9.96895 1.30204C11.5349 2.09053 12.654 2.57707 16.2254 4.93171C19.7968 7.28635 22.4592 10.018 27.2002 14.4289C29.3462 16.4255 31.0119 21.2794 40.6145 21.5059C41.662 21.5306 42.7439 23.0996 39.5097 30.1172C36.2755 37.1347 23.5447 38.1076 19.0377 43.4135C14.5307 48.7195 9.17485 48.6224 6.0641 46.4065C5.17123 45.7705 5.16859 45.4603 5.15407 43.756C5.14323 42.4836 5.12577 40.4343 4.72636 36.8924C3.99128 30.3739 3.17414 24.241 2.33375 19.9017ZM5.18062 36.8412C4.34479 29.4293 3.54544 23.7539 2.78255 19.8148C2.31102 17.3801 1.95785 15.5347 1.72306 14.2786C1.44518 12.7921 1.23092 11.5892 1.0803 10.67C0.928302 9.7424 0.810302 8.91616 0.726298 8.19127C0.651885 7.54914 0.586733 6.82845 0.530843 6.02918C0.470761 5.16996 0.447645 4.49023 0.461496 3.98999C0.478668 3.36982 0.551208 2.85696 0.679114 2.45139C0.813221 2.02617 1.0207 1.67809 1.30155 1.40714C1.60788 1.11161 2.0267 0.880437 2.55802 0.713607C3.09659 0.544498 3.71782 0.45902 4.42168 0.457173C5.05373 0.455514 5.72976 0.520898 6.44977 0.653324C7.08424 0.770018 7.71195 0.930473 8.33289 1.13469C8.88492 1.31624 9.36174 1.50812 9.76336 1.71035C9.87808 1.76811 10.0458 1.85195 10.2665 1.96187C10.706 2.1807 11.0424 2.35088 11.2758 2.47241C11.6616 2.67323 12.0463 2.8833 12.4302 3.10261C13.3821 3.64655 14.5633 4.38347 15.9738 5.31337C16.668 5.77107 17.3585 6.2646 18.0452 6.79396C18.6786 7.28222 19.3466 7.83039 20.0492 8.43848C20.6535 8.96148 21.3505 9.58757 22.1401 10.3168C22.6262 10.7658 23.4025 11.492 24.4689 12.4956C25.5014 13.4673 26.308 14.2233 26.8888 14.7636C27.0609 14.9238 27.254 15.1282 27.4679 15.3768C27.6016 15.5323 27.8094 15.7847 28.0912 16.1343C28.4076 16.5268 28.6544 16.8266 28.8314 17.0337C29.133 17.3865 29.4254 17.705 29.7086 17.989C30.4417 18.7243 31.2309 19.3458 32.0764 19.8537C33.1145 20.4772 34.2836 20.9616 35.5834 21.3066C37.0661 21.7002 38.7396 21.919 40.6037 21.963C40.6814 21.9648 40.7513 21.9817 40.8135 22.0136C40.8748 22.0451 40.9286 22.0913 40.9749 22.152C41.1331 22.3597 41.2117 22.7051 41.2106 23.1882C41.2091 23.8369 41.0575 24.6689 40.7558 25.6844C40.4009 26.8789 39.8472 28.2928 39.0945 29.9258C38.6844 30.8156 38.0885 31.6489 37.3069 32.4257C36.6024 33.1257 35.7254 33.8002 34.6758 34.4491C33.7939 34.9943 32.7269 35.558 31.4747 36.1401C30.9723 36.3737 30.3985 36.6298 29.7535 36.9084C29.3657 37.0758 28.7818 37.3238 28.0018 37.6524C26.7921 38.162 25.8944 38.5479 25.3088 38.8102C24.3299 39.2486 23.4831 39.6603 22.7683 40.0453C21.9053 40.5102 21.1543 40.9777 20.5153 41.4479C19.7903 41.9814 19.1816 42.5379 18.6893 43.1176C17.6411 44.3515 16.5159 45.325 15.3134 46.0381C14.2243 46.6839 13.1052 47.0976 11.956 47.2792C11.1839 47.4011 10.4256 47.415 9.68096 47.3206C9.41035 47.2863 9.14154 47.2377 8.87455 47.1749C8.16371 47.0075 7.50521 46.7492 6.89907 46.4001C6.70372 46.2876 6.5138 46.1656 6.32932 46.0342C6.12756 45.8905 5.98194 45.7671 5.89245 45.664C5.85291 45.6185 5.81869 45.57 5.78978 45.5185C5.75957 45.4646 5.73516 45.4076 5.71656 45.3472C5.67553 45.2141 5.64774 45.0227 5.63319 44.7731C5.62281 44.5949 5.61547 44.2545 5.61119 43.7521C5.60281 42.7681 5.57991 41.9015 5.5425 41.1525C5.47662 39.8334 5.35599 38.3963 5.18062 36.8412Z"
                    fill="rgba(151,151,151,1)" fill-opacity="0" fill-rule="evenodd"
                    transform="matrix(-0.997564,0.0697565,0.0697565,0.997564,71.7926,65.6722)" />
                <path id="路径"
                    d="M14.8752 0.0593856C14.9344 -0.0110458 15.0395 -0.0201257 15.11 0.0391051C15.1804 0.0983358 15.1895 0.203448 15.1302 0.273879C12.2061 3.75104 9.51986 6.51518 7.07079 8.56656C4.62215 10.6176 2.34784 12.2226 0.24715 13.3815C0.166573 13.426 0.0652151 13.3967 0.0207611 13.3161C-0.0236928 13.2355 0.00559107 13.1342 0.0861684 13.0897C2.16653 11.942 4.42364 10.3491 6.85679 8.31108C9.28951 6.2734 11.9626 3.52275 14.8752 0.0593856Z"
                    fill="rgba(93,94,93,1)" fill-rule="evenodd"
                    transform="matrix(0.898794,0.438371,-0.438371,0.898794,53.7812,80.7645)" />
                <path id="路径"
                    d="M9.80302 0.0291587C9.87895 -0.0228346 9.98265 -0.00342911 10.0346 0.0725021C10.0866 0.148433 10.0672 0.252137 9.9913 0.30413C6.05287 3.00094 2.80044 4.89222 0.231563 5.97838C0.146801 6.01422 0.049036 5.97456 0.0131977 5.8898C-0.0226405 5.80504 0.0170194 5.70727 0.101781 5.67143C2.64684 4.59534 5.8814 2.71445 9.80302 0.0291587Z"
                    fill="rgba(93,94,93,1)" fill-rule="evenodd"
                    transform="matrix(0.978148,0.207912,-0.207912,0.978148,45.7498,92.6686)" />
            </g>
        </g>
        <g id="03前景氛围/成功" filter="url(#filter_2)">
            <g filter="url(#filter_3)">
                <path id="Fill-1-path"
                    d="M127.543 62.1714C121.241 62.1714 116.114 67.2982 116.114 73.6C116.114 79.9005 121.241 85.0285 127.543 85.0285C133.843 85.0285 138.971 79.9005 138.971 73.6C138.971 67.2982 133.843 62.1714 127.543 62.1714Z"
                    fill="url(#paint_linear_0)" fill-rule="evenodd" />
                <path id="Fill-1-path"
                    d="M127.543 62.1714C121.241 62.1714 116.114 67.2982 116.114 73.6C116.114 79.9005 121.241 85.0285 127.543 85.0285C133.843 85.0285 138.971 79.9005 138.971 73.6C138.971 67.2982 133.843 62.1714 127.543 62.1714Z"
                    fill="rgba(0,103,208,1)" fill-opacity="0" fill-rule="evenodd" />
                <path id="Fill-1-path"
                    d="M125.177 62.8836C125.947 62.7136 126.735 62.6285 127.543 62.6285C128.349 62.6285 129.136 62.7133 129.905 62.8828C130.553 63.0256 131.187 63.2286 131.808 63.4918C132.414 63.7485 132.988 64.0538 133.53 64.4079C134.162 64.8209 134.751 65.3002 135.297 65.8458C135.842 66.3916 136.322 66.9807 136.735 67.6132C137.089 68.155 137.394 68.7286 137.651 69.3341C137.914 69.9547 138.117 70.5885 138.26 71.2356C138.429 72.005 138.514 72.7931 138.514 73.6C138.514 74.4054 138.43 75.1921 138.26 75.9602C138.117 76.6086 137.914 77.2436 137.651 77.8654C137.394 78.4705 137.089 79.0439 136.736 79.5855C136.322 80.2183 135.843 80.8077 135.297 81.3537C134.751 81.8998 134.161 82.3795 133.528 82.7928C132.987 83.1464 132.413 83.4515 131.808 83.7079C131.186 83.9714 130.551 84.1746 129.903 84.3175C129.135 84.4868 128.348 84.5714 127.543 84.5714C126.736 84.5714 125.948 84.4865 125.179 84.3167C124.531 84.1738 123.898 83.9709 123.277 83.7079C122.672 83.4514 122.098 83.1461 121.556 82.7922C120.924 82.379 120.334 81.8996 119.789 81.3537C119.243 80.8081 118.764 80.2192 118.351 79.5869C117.997 79.0449 117.691 78.4711 117.435 77.8654C117.172 77.2442 116.968 76.6097 116.826 75.9619C116.656 75.1933 116.571 74.406 116.571 73.6C116.571 72.7924 116.656 72.0037 116.826 71.2338C116.969 70.5873 117.172 69.954 117.435 69.334C117.691 68.7281 117.997 68.1539 118.351 67.6117C118.764 66.9798 119.243 66.3911 119.789 65.8458C120.334 65.3004 120.923 64.8213 121.555 64.4084C122.097 64.0541 122.671 63.7486 123.277 63.4918C123.897 63.2292 124.53 63.0264 125.177 62.8836ZM116.114 73.6C116.114 67.2982 121.241 62.1714 127.543 62.1714C133.843 62.1714 138.971 67.2982 138.971 73.6C138.971 79.9005 133.843 85.0285 127.543 85.0285C121.241 85.0285 116.114 79.9005 116.114 73.6Z"
                    fill="url(#paint_linear_1)" fill-opacity="0" fill-rule="evenodd" />
                <path id="Fill-1-path"
                    d="M125.177 62.8836C125.947 62.7136 126.735 62.6285 127.543 62.6285C128.349 62.6285 129.136 62.7133 129.905 62.8828C130.553 63.0256 131.187 63.2286 131.808 63.4918C132.414 63.7485 132.988 64.0538 133.53 64.4079C134.162 64.8209 134.751 65.3002 135.297 65.8458C135.842 66.3916 136.322 66.9807 136.735 67.6132C137.089 68.155 137.394 68.7286 137.651 69.3341C137.914 69.9547 138.117 70.5885 138.26 71.2356C138.429 72.005 138.514 72.7931 138.514 73.6C138.514 74.4054 138.43 75.1921 138.26 75.9602C138.117 76.6086 137.914 77.2436 137.651 77.8654C137.394 78.4705 137.089 79.0439 136.736 79.5855C136.322 80.2183 135.843 80.8077 135.297 81.3537C134.751 81.8998 134.161 82.3795 133.528 82.7928C132.987 83.1464 132.413 83.4515 131.808 83.7079C131.186 83.9714 130.551 84.1746 129.903 84.3175C129.135 84.4868 128.348 84.5714 127.543 84.5714C126.736 84.5714 125.948 84.4865 125.179 84.3167C124.531 84.1738 123.898 83.9709 123.277 83.7079C122.672 83.4514 122.098 83.1461 121.556 82.7922C120.924 82.379 120.334 81.8996 119.789 81.3537C119.243 80.8081 118.764 80.2192 118.351 79.5869C117.997 79.0449 117.691 78.4711 117.435 77.8654C117.172 77.2442 116.968 76.6097 116.826 75.9619C116.656 75.1933 116.571 74.406 116.571 73.6C116.571 72.7924 116.656 72.0037 116.826 71.2338C116.969 70.5873 117.172 69.954 117.435 69.334C117.691 68.7281 117.997 68.1539 118.351 67.6117C118.764 66.9798 119.243 66.3911 119.789 65.8458C120.334 65.3004 120.923 64.8213 121.555 64.4084C122.097 64.0541 122.671 63.7486 123.277 63.4918C123.897 63.2292 124.53 63.0264 125.177 62.8836ZM116.114 73.6C116.114 67.2982 121.241 62.1714 127.543 62.1714C133.843 62.1714 138.971 67.2982 138.971 73.6C138.971 79.9005 133.843 85.0285 127.543 85.0285C121.241 85.0285 116.114 79.9005 116.114 73.6Z"
                    fill="url(#paint_linear_2)" fill-opacity="0" fill-rule="evenodd" />
                <path id="Fill-1-path"
                    d="M125.177 62.8836C125.947 62.7136 126.735 62.6285 127.543 62.6285C128.349 62.6285 129.136 62.7133 129.905 62.8828C130.553 63.0256 131.187 63.2286 131.808 63.4918C132.414 63.7485 132.988 64.0538 133.53 64.4079C134.162 64.8209 134.751 65.3002 135.297 65.8458C135.842 66.3916 136.322 66.9807 136.735 67.6132C137.089 68.155 137.394 68.7286 137.651 69.3341C137.914 69.9547 138.117 70.5885 138.26 71.2356C138.429 72.005 138.514 72.7931 138.514 73.6C138.514 74.4054 138.43 75.1921 138.26 75.9602C138.117 76.6086 137.914 77.2436 137.651 77.8654C137.394 78.4705 137.089 79.0439 136.736 79.5855C136.322 80.2183 135.843 80.8077 135.297 81.3537C134.751 81.8998 134.161 82.3795 133.528 82.7928C132.987 83.1464 132.413 83.4515 131.808 83.7079C131.186 83.9714 130.551 84.1746 129.903 84.3175C129.135 84.4868 128.348 84.5714 127.543 84.5714C126.736 84.5714 125.948 84.4865 125.179 84.3167C124.531 84.1738 123.898 83.9709 123.277 83.7079C122.672 83.4514 122.098 83.1461 121.556 82.7922C120.924 82.379 120.334 81.8996 119.789 81.3537C119.243 80.8081 118.764 80.2192 118.351 79.5869C117.997 79.0449 117.691 78.4711 117.435 77.8654C117.172 77.2442 116.968 76.6097 116.826 75.9619C116.656 75.1933 116.571 74.406 116.571 73.6C116.571 72.7924 116.656 72.0037 116.826 71.2338C116.969 70.5873 117.172 69.954 117.435 69.334C117.691 68.7281 117.997 68.1539 118.351 67.6117C118.764 66.9798 119.243 66.3911 119.789 65.8458C120.334 65.3004 120.923 64.8213 121.555 64.4084C122.097 64.0541 122.671 63.7486 123.277 63.4918C123.897 63.2292 124.53 63.0264 125.177 62.8836ZM116.114 73.6C116.114 67.2982 121.241 62.1714 127.543 62.1714C133.843 62.1714 138.971 67.2982 138.971 73.6C138.971 79.9005 133.843 85.0285 127.543 85.0285C121.241 85.0285 116.114 79.9005 116.114 73.6Z"
                    fill="rgba(225,223,223,1)" fill-opacity="0" fill-rule="evenodd" />
            </g>
            <g filter="url(#filter_4)">
                <path id="Fill-1-path"
                    d="M134.439 70.2022L126.43 78.2091C126.263 78.376 126.043 78.4605 125.824 78.4605C125.605 78.4605 125.385 78.376 125.218 78.2091L120.647 73.6377C120.312 73.3028 120.312 72.76 120.647 72.4251C120.982 72.0902 121.523 72.0902 121.858 72.4251L125.824 76.3908L133.226 68.9897C133.561 68.6548 134.104 68.6548 134.439 68.9897C134.774 69.3245 134.774 69.8674 134.439 70.2022Z"
                    fill="url(#paint_linear_3)" fill-rule="evenodd" />
                <path id="Fill-1-path"
                    d="M134.439 70.2022L126.43 78.2091C126.263 78.376 126.043 78.4605 125.824 78.4605C125.605 78.4605 125.385 78.376 125.218 78.2091L120.647 73.6377C120.312 73.3028 120.312 72.76 120.647 72.4251C120.982 72.0902 121.523 72.0902 121.858 72.4251L125.824 76.3908L133.226 68.9897C133.561 68.6548 134.104 68.6548 134.439 68.9897C134.774 69.3245 134.774 69.8674 134.439 70.2022Z"
                    fill-rule="evenodd" stroke="url(#paint_linear_4)" stroke-width="0.326461345" />
            </g>
        </g>
        <g id="03前景氛围/青色矩形" customFrame="url(#clipPath_1)">
            <rect id="03前景氛围/青色矩形" width="10.971427" height="10.9714289" x="14.62854" y="56.6856689" />
            <rect id="矩形" width="10.971427" height="10.9714289" x="14.62854" y="56.6856689" rx="1.46285713"
                fill="rgba(44,184,201,1)" />
            <rect id="矩形" width="10.5142841" height="10.514286" x="14.8571119" y="56.9142418" rx="1.46285713"
                stroke="rgba(225,223,223,1)" stroke-opacity="0" stroke-width="0.45714286" />
        </g>
    </svg>