<svg viewBox="0 0 304 270" xmlns="http://www.w3.org/2000/svg" xmlns:xlink="http://www.w3.org/1999/xlink" width="304.000000" height="270.000000" fill="none" clip-path="url(#clipPath_7)" customFrame="url(#clipPath_7)">
	<mask id="mask_1" width="120.000000" height="120.000000" x="92.000000" y="16.000000" maskUnits="userSpaceOnUse">
		<g filter="url(#pixso_custom_mask_type_alpha)">
			<g id="clip487_68194">
				<rect id="IllHdEmptyNoRecord_light" width="120.000000" height="120.000000" x="92.000000" y="16.000000" fill="rgb(0,0,0)" />
			</g>
		</g>
	</mask>
	<defs>
		<linearGradient id="paint_linear_1" x1="152.000061" x2="152" y1="269.999969" y2="-3.05175781e-05" gradientUnits="userSpaceOnUse">
			<stop stop-color="rgb(249,249,250)" offset="0" stop-opacity="1" />
			<stop stop-color="rgb(246,245,255)" offset="0.637353003" stop-opacity="1" />
			<stop stop-color="rgb(226,243,255)" offset="1" stop-opacity="1" />
		</linearGradient>
		<clipPath id="clipPath_7">
			<rect width="304.000000" height="270.000000" x="0.000000" y="0.000000" rx="12.000000" fill="rgb(255,255,255)" />
		</clipPath>
		<g id="pixso_custom_effect_2">
			<effect visibility="visible" effectType="gaussianBlur" stdDeviation="70" />
		</g>
		<filter id="filter_2" width="185.000000" height="185.000000" x="30.000000" y="178.000000" filterUnits="userSpaceOnUse" customEffect="url(#pixso_custom_effect_2)" color-interpolation-filters="sRGB">
			<feFlood flood-opacity="0" result="BackgroundImageFix" />
			<feBlend result="shape" in="SourceGraphic" in2="BackgroundImageFix" mode="normal" />
			<feGaussianBlur stdDeviation="23.333334" result="effect_layerBlur_1" />
		</filter>
		<g id="pixso_custom_effect_3">
			<effect visibility="visible" effectType="gaussianBlur" stdDeviation="100" />
		</g>
		<filter id="filter_3" width="373.339478" height="276.283875" x="27.901733" y="126.782227" filterUnits="userSpaceOnUse" customEffect="url(#pixso_custom_effect_3)" color-interpolation-filters="sRGB">
			<feFlood flood-opacity="0" result="BackgroundImageFix" />
			<feBlend result="shape" in="SourceGraphic" in2="BackgroundImageFix" mode="normal" />
			<feGaussianBlur stdDeviation="33.3333321" result="effect_layerBlur_1" />
		</filter>
		<clipPath id="clipPath_8">
			<rect width="268.000000" height="238.000000" x="18.000000" y="16.000000" fill="rgb(255,255,255)" />
		</clipPath>
		<clipPath id="clipPath_9">
			<rect width="268.000000" height="194.000000" x="18.000000" y="16.000000" fill="rgb(255,255,255)" />
		</clipPath>
		<clipPath id="clipPath_10">
			<rect width="120.000000" height="120.000000" x="92.000000" y="16.000000" fill="rgb(255,255,255)" />
		</clipPath>
		<filter id="pixso_custom_mask_type_alpha">
			<feColorMatrix type="matrix" values="0 0 0 0 1 0 0 0 0 1 0 0 0 0 1 0 0 0 1 0 " />
		</filter>
		<clipPath id="clipPath_11">
			<rect width="268.000000" height="74.000000" x="18.000000" y="136.000000" fill="rgb(255,255,255)" />
		</clipPath>
		<clipPath id="clipPath_12">
			<rect width="83.000000" height="22.000000" x="110.500000" y="188.000000" fill="rgb(255,255,255)" />
		</clipPath>
		<clipPath id="clipPath_13">
			<rect width="16.000000" height="16.000000" x="0.000000" y="0.000000" fill="rgb(255,255,255)" transform="matrix(1,0,0,-1,177.5,207)" />
		</clipPath>
	</defs>
	<rect id="容器 31841" width="304.000000" height="270.000000" x="0.000000" y="0.000000" rx="12.000000" fill="url(#paint_linear_1)" fill-opacity="0" />
	<rect id="容器 31841" width="304.000000" height="270.000000" x="0.000000" y="0.000000" rx="12.000000" fill="rgb(248,248,250)" />
	<g opacity="0.5" filter="url(#filter_2)">
		<circle id="椭圆 2" cx="122.5" cy="270.5" r="22.4999981" fill="rgb(218,194,255)" />
	</g>
	<g opacity="0.5" filter="url(#filter_3)">
		<ellipse id="椭圆 1" rx="87.780197" ry="35.492382" cx="87.7801971" cy="35.492382" fill="rgb(220,238,255)" transform="matrix(0.984808,-0.173648,0.173648,0.984808,121.962,245.214)" />
	</g>
	<g id="容器 4273" opacity="0" customFrame="url(#clipPath_8)">
		<rect id="容器 4273" width="268.000000" height="238.000000" x="18.000000" y="16.000000" />
		<g id="容器 31777" customFrame="url(#clipPath_9)">
			<rect id="容器 31777" width="268.000000" height="194.000000" x="18.000000" y="16.000000" />
			<g id="IllHdEmptyNoRecord" clip-path="url(#clipPath_10)" customFrame="url(#clipPath_10)">
				<rect id="IllHdEmptyNoRecord" width="120.000000" height="120.000000" x="92.000000" y="16.000000" />
				<rect id="IllHdEmptyNoRecord_light" width="120.000000" height="120.000000" x="92.000000" y="16.000000" fill="rgb(255,255,255)" fill-opacity="0" />
				<g id="clip path group" mask="url(#mask_1)">
					<g id="组合 31766">
						<path id="矩形 3214" d="M136.688 36.432L163.296 36.432C164.288 36.432 165.064 37.28 164.984 38.264L164.472 44.096C164.44 44.536 164.072 44.872 163.632 44.872L136.352 44.872C135.912 44.872 135.552 44.536 135.512 44.096L135.008 38.264C134.92 37.28 135.696 36.432 136.688 36.432Z" fill="rgb(156,168,197)" fill-rule="evenodd" />
						<path id="减去顶层" d="M135.028 38.4824L122.765 38.4824C119.849 38.4824 117.485 40.8463 117.485 43.7624L117.485 115.834C117.485 118.75 119.849 121.114 122.765 121.114L177.25 121.114C180.166 121.114 182.53 118.75 182.53 115.834L182.53 43.7624C182.53 40.8463 180.166 38.4824 177.25 38.4824L164.966 38.4824L164.584 42.8839L174.722 42.8839C176.666 42.8839 178.242 44.4599 178.242 46.4039L178.242 113.408C178.242 115.352 176.666 116.928 174.722 116.928L125.291 116.928C123.347 116.928 121.771 115.352 121.771 113.408L121.771 46.4039C121.771 44.4599 123.347 42.8839 125.291 42.8839L135.41 42.8839L135.028 38.4824Z" fill="rgb(200,206,221)" fill-rule="evenodd" />
						<path id="减去顶层" d="M135.41 42.8838L125.291 42.8838C123.347 42.8838 121.771 44.4598 121.771 46.4038L121.771 113.408C121.771 115.352 123.347 116.928 125.291 116.928L159.322 116.928C159.322 116.928 160.283 110.234 156.831 103.394C156.186 102.115 157.058 100.372 158.45 100.037C166.77 98.0319 176.002 89.5267 178.241 85.0467C175.352 104.771 164.425 114.519 159.322 116.928L174.722 116.928C176.666 116.928 178.242 115.352 178.242 113.408L178.242 46.4038C178.242 44.4598 176.666 42.8838 174.722 42.8838L164.584 42.8838L164.478 44.1014C164.44 44.5374 164.076 44.8719 163.638 44.8719L136.356 44.8719C135.919 44.8719 135.554 44.5374 135.516 44.1014L135.41 42.8838ZM163.779 45.8332L136.199 45.8332C135.84 45.8332 135.549 46.1242 135.549 46.4831C135.549 46.842 135.84 47.1331 136.199 47.1331L163.779 47.1331C164.138 47.1331 164.429 46.842 164.429 46.4831C164.429 46.1242 164.138 45.8332 163.779 45.8332ZM132.111 55.6881C131.139 55.6881 130.351 56.476 130.351 57.4481C130.351 58.4201 131.139 59.2081 132.111 59.2081C133.083 59.2081 133.871 58.4201 133.871 57.4481C133.871 56.476 133.083 55.6881 132.111 55.6881ZM168.305 56.1281L137.756 56.1281C137.027 56.1281 136.436 56.7191 136.436 57.4481C136.436 58.1771 137.027 58.7681 137.756 58.7681L168.305 58.7681C169.034 58.7681 169.625 58.1771 169.625 57.4481C169.625 56.7191 169.034 56.1281 168.305 56.1281ZM132.111 63.6081C131.139 63.6081 130.351 64.396 130.351 65.3681C130.351 66.3401 131.139 67.1281 132.111 67.1281C133.083 67.1281 133.871 66.3401 133.871 65.3681C133.871 64.396 133.083 63.6081 132.111 63.6081ZM168.302 64.0481L137.752 64.0481C137.023 64.0481 136.432 64.6391 136.432 65.3681C136.432 66.0971 137.023 66.6881 137.752 66.6881L168.302 66.6881C169.031 66.6881 169.622 66.0971 169.622 65.3681C169.622 64.6391 169.031 64.0481 168.302 64.0481ZM132.115 71.5281C131.143 71.5281 130.355 72.316 130.355 73.2881C130.355 74.2601 131.143 75.0481 132.115 75.0481C133.087 75.0481 133.875 74.2601 133.875 73.2881C133.875 72.316 133.087 71.5281 132.115 71.5281ZM168.309 71.9681L137.756 71.9681C137.027 71.9681 136.436 72.5591 136.436 73.2881C136.436 74.0171 137.027 74.6081 137.756 74.6081L168.309 74.6081C169.038 74.6081 169.629 74.0171 169.629 73.2881C169.629 72.5591 169.038 71.9681 168.309 71.9681ZM143.28 99.8831L131.675 99.8831C130.946 99.8831 130.355 100.474 130.355 101.203C130.355 101.932 130.946 102.523 131.675 102.523L143.28 102.523C144.009 102.523 144.6 101.932 144.6 101.203C144.6 100.474 144.009 99.8831 143.28 99.8831ZM143.28 106.923L131.675 106.923C130.946 106.923 130.355 107.514 130.355 108.243C130.355 108.972 130.946 109.563 131.675 109.563L143.28 109.563C144.009 109.563 144.6 108.972 144.6 108.243C144.6 107.514 144.009 106.923 143.28 106.923Z" fill="rgb(226,231,245)" fill-rule="evenodd" />
						<rect id="矩形 3215" width="28.879889" height="1.299841" x="135.548706" y="45.833252" rx="0.649921" fill="rgb(156,168,197)" />
						<path id="矩形 3216" d="M191.472 71.416C191.184 69.424 190.736 67.504 190.288 65.9041C189.872 64.384 187.992 64.424 187.624 65.9601C187.248 67.552 186.856 69.448 186.6 71.416C185.904 76.648 186.104 84.288 186.104 84.288L191.92 84.288C191.92 84.288 192.232 76.648 191.472 71.416Z" fill="rgb(215,221,238)" fill-rule="evenodd" />
						<path id="矩形 3217" d="M191.072 111.176C190.864 112.848 190.56 114.464 190.248 115.896C189.888 117.512 187.928 117.472 187.616 115.848C187.344 114.432 187.08 112.832 186.896 111.176C186.296 105.928 186.552 84.84 186.552 84.84L191.536 84.84C191.536 84.84 191.72 105.928 191.072 111.176Z" fill="rgb(215,221,238)" fill-rule="evenodd" />
						<path id="矢量 1427" d="M190.68 67.5679L190.672 67.5439C190.336 67.3839 189.952 67.5199 189.792 67.8559C189.632 68.1919 189.768 68.5759 190.104 68.7359L190.12 68.728L190.68 67.5679ZM192.904 83.6719L192.88 83.6879C192.872 84.0639 193.16 84.3599 193.528 84.3679C193.896 84.3759 194.192 84.0879 194.2 83.7199L194.184 83.7039L192.904 83.6719Z" fill="rgb(223,223,223)" fill-rule="nonzero" />
						<path id="矢量 1427" d="M190.384 68.144L190.64 68.264C191.936 68.888 192.888 70.032 193.08 71.456C193.368 73.616 193.68 77.488 193.544 83.704" fill-rule="evenodd" stroke="rgb(215,221,238)" stroke-linecap="round" stroke-width="1.320000" />
						<path id="矢量 1444" d="M178.24 85.04C176 89.52 166.768 98.032 158.448 100.032C157.056 100.368 156.184 102.112 156.824 103.392C160.28 110.232 159.32 116.928 159.32 116.928C164.424 114.512 175.352 104.768 178.24 85.04Z" fill="rgb(200,206,221)" fill-rule="evenodd" />
						<path id="合并" d="M130.351 57.4481C130.351 56.476 131.139 55.6881 132.111 55.6881C133.083 55.6881 133.871 56.476 133.871 57.4481C133.871 58.4201 133.083 59.2081 132.111 59.2081C131.139 59.2081 130.351 58.4201 130.351 57.4481ZM137.756 56.1281L168.305 56.1281C169.034 56.1281 169.625 56.7191 169.625 57.4481C169.625 58.1771 169.034 58.7681 168.305 58.7681L137.756 58.7681C137.026 58.7681 136.436 58.1771 136.436 57.4481C136.436 56.7191 137.026 56.1281 137.756 56.1281ZM130.351 65.3681C130.351 64.396 131.139 63.6081 132.111 63.6081C133.083 63.6081 133.871 64.396 133.871 65.3681C133.871 66.3401 133.083 67.1281 132.111 67.1281C131.139 67.1281 130.351 66.3401 130.351 65.3681ZM137.752 64.0481L168.302 64.0481C169.031 64.0481 169.622 64.6391 169.622 65.3681C169.622 66.0971 169.031 66.6881 168.302 66.6881L137.752 66.6881C137.023 66.6881 136.432 66.0971 136.432 65.3681C136.432 64.6391 137.023 64.0481 137.752 64.0481ZM130.355 73.2881C130.355 72.316 131.143 71.5281 132.115 71.5281C133.087 71.5281 133.875 72.316 133.875 73.2881C133.875 74.2601 133.087 75.0481 132.115 75.0481C131.143 75.0481 130.355 74.2601 130.355 73.2881ZM137.756 71.9681L168.309 71.9681C169.038 71.9681 169.629 72.5591 169.629 73.2881C169.629 74.0171 169.038 74.6081 168.309 74.6081L137.756 74.6081C137.026 74.6081 136.436 74.0171 136.436 73.2881C136.436 72.5591 137.026 71.9681 137.756 71.9681ZM131.675 99.8831L143.28 99.8831C144.009 99.8831 144.6 100.474 144.6 101.203C144.6 101.932 144.009 102.523 143.28 102.523L131.675 102.523C130.946 102.523 130.355 101.932 130.355 101.203C130.355 100.474 130.946 99.8831 131.675 99.8831ZM131.675 106.923L143.28 106.923C144.009 106.923 144.6 107.514 144.6 108.243C144.6 108.972 144.009 109.563 143.28 109.563L131.675 109.563C130.946 109.563 130.355 108.972 130.355 108.243C130.355 107.514 130.946 106.923 131.675 106.923Z" fill="rgb(255,255,255)" fill-rule="evenodd" />
						<path id="矢量 349" d="M184.416 37.336L185.944 35.192" stroke="rgb(57,121,249)" stroke-linecap="round" stroke-width="1.760000" />
						<path id="矢量 351" d="M181.584 36.04L181.984 33.432" stroke="rgb(57,121,249)" stroke-linecap="round" stroke-width="1.760000" />
						<path id="矢量 350" d="M186.608 39.432L189.024 38.376" stroke="rgb(85,204,217)" stroke-linecap="round" stroke-width="1.760000" />
					</g>
				</g>
			</g>
			<g id="容器 31827" customFrame="url(#clipPath_11)">
				<rect id="容器 31827" width="268.000000" height="74.000000" x="18.000000" y="136.000000" />
				<path id="" d="M119.41 144.033L119.41 144.86L123.426 144.86L123.426 145.742L114.454 145.742L114.454 144.86L118.371 144.86L118.371 144.033L115.318 144.033L115.318 143.151L118.371 143.151L118.371 142.368L114.901 142.368L114.901 141.459L118.371 141.459L118.371 140.297L119.41 140.297L119.41 141.459L122.992 141.459L122.992 142.368L119.41 142.368L119.41 143.151L122.657 143.151L122.657 144.033L119.41 144.033ZM113.206 143.725C112.57 142.745 111.992 141.887 111.47 141.151L112.379 140.577C113.22 141.714 113.822 142.558 114.187 143.11L113.206 143.725ZM113.346 150.585L114.549 149.495L114.97 150.517L114.396 151.005C113.967 151.361 113.599 151.679 113.292 151.959C113.011 152.201 112.778 152.424 112.591 152.629L111.917 151.792C112.047 151.659 112.141 151.531 112.198 151.405C112.255 151.28 112.283 151.133 112.283 150.964L112.283 145.687L110.629 145.687L110.629 144.621L113.346 144.621L113.346 150.585ZM115.489 152.937L115.489 146.524L122.318 146.524L122.318 151.525C122.318 152.019 122.216 152.376 122.011 152.595C121.806 152.813 121.47 152.923 121.002 152.923C120.592 152.923 120.102 152.891 119.533 152.827L119.365 151.901C119.908 151.985 120.355 152.027 120.708 152.027C120.943 152.027 121.097 151.969 121.17 151.853C121.245 151.737 121.283 151.561 121.283 151.327L121.283 150.91L116.539 150.91L116.539 152.937L115.489 152.937ZM121.283 148.305L121.283 147.437L116.539 147.437L116.539 148.305L121.283 148.305ZM116.539 149.16L116.539 150.055L121.283 150.055L121.283 149.16L116.539 149.16ZM130.426 142.915L130.426 144.552L129.376 144.552L129.376 141.879L132.637 141.879C132.293 141.048 132.074 140.543 131.981 140.365L133.129 140.071C133.223 140.276 133.339 140.55 133.478 140.892C133.617 141.231 133.748 141.56 133.871 141.879L136.797 141.879L136.797 144.552L135.717 144.552L135.717 142.915L130.426 142.915ZM128.717 146.818L128.074 147.085L127.473 147.338L127.473 151.398C127.473 151.968 127.36 152.358 127.134 152.567C126.911 152.777 126.534 152.882 126.003 152.882C125.545 152.882 125.153 152.859 124.827 152.813L124.602 151.733C125.087 151.809 125.447 151.846 125.682 151.846C125.896 151.846 126.05 151.828 126.143 151.792C126.236 151.753 126.301 151.678 126.338 151.566C126.374 151.454 126.393 151.277 126.393 151.033L126.393 147.758L125.709 148.025C125.438 148.127 125.115 148.257 124.742 148.415L124.461 147.338C125.022 147.151 125.666 146.917 126.393 146.637L126.393 143.91L124.796 143.91L124.796 142.83L126.393 142.83L126.393 140.379L127.473 140.379L127.473 142.83L128.748 142.83L128.748 143.91L127.473 143.91L127.473 146.217C127.892 146.05 128.251 145.897 128.549 145.755L128.717 146.818ZM137.371 146.777L135.748 146.777C135.588 147.516 135.386 148.16 135.143 148.712C134.901 149.261 134.593 149.756 134.22 150.195C135.042 150.69 135.897 151.226 136.783 151.805C136.877 151.851 137.007 151.929 137.173 152.041L136.489 153.036C135.247 152.215 134.211 151.539 133.379 151.005C132.866 151.416 132.241 151.794 131.502 152.14C130.766 152.486 129.866 152.832 128.802 153.176L128.313 152.055C129.218 151.804 129.996 151.539 130.648 151.258C131.302 150.978 131.858 150.675 132.316 150.349C131.382 149.789 130.569 149.326 129.879 148.961C130.198 148.319 130.511 147.591 130.819 146.777L129.137 146.777L129.137 145.742L131.181 145.742C131.416 145.06 131.64 144.328 131.854 143.544L132.976 143.811C132.75 144.537 132.544 145.181 132.357 145.742L137.371 145.742L137.371 146.777ZM133.198 149.577C133.535 149.214 133.815 148.806 134.039 148.353C134.262 147.9 134.449 147.374 134.599 146.777L131.981 146.777C131.728 147.468 131.49 148.047 131.267 148.514C131.734 148.746 132.377 149.1 133.198 149.577ZM142.368 146.89L141.179 147.338L141.179 151.327C141.179 151.878 141.083 152.259 140.892 152.468C140.7 152.678 140.362 152.783 139.876 152.783C139.653 152.783 139.326 152.764 138.896 152.728L138.673 151.665C139.065 151.72 139.364 151.747 139.569 151.747C139.774 151.747 139.923 151.684 140.017 151.559C140.11 151.434 140.157 151.231 140.157 150.951L140.157 147.717L138.742 148.233L138.502 147.17C139.268 146.899 139.819 146.699 140.157 146.569L140.157 143.824L138.755 143.824L138.755 142.761L140.157 142.761L140.157 140.338L141.179 140.338L141.179 142.761L142.467 142.761L142.467 143.824L141.179 143.824L141.179 146.189L142.173 145.827L142.368 146.89ZM143.571 140.758L149.857 140.758L149.857 143.684L143.571 143.684L143.571 140.758ZM144.607 142.789L148.835 142.789L148.835 141.667L144.607 141.667L144.607 142.789ZM142.761 144.511L146.203 144.511L146.203 147.393L142.761 147.393L142.761 144.511ZM150.67 147.393L147.157 147.393L147.157 144.511L150.67 144.511L150.67 147.393ZM149.748 145.379L148.08 145.362L148.08 146.542L149.748 146.542L149.748 145.379ZM143.684 146.542L145.28 146.542L145.28 145.379L143.684 145.379L143.684 146.542ZM148.292 149.454C148.693 149.909 149.147 150.324 149.655 150.698C150.163 151.071 150.767 151.441 151.467 151.805L150.838 152.742C150.036 152.247 149.352 151.753 148.787 151.258C148.222 150.764 147.71 150.194 147.252 149.549L147.252 152.995L146.189 152.995L146.189 149.607C145.704 150.204 145.165 150.748 144.573 151.238C143.98 151.728 143.31 152.187 142.563 152.615L141.862 151.679C143.255 151.025 144.365 150.283 145.195 149.454L142.269 149.454L142.269 148.486L146.189 148.486L146.189 147.885L147.252 147.885L147.252 148.486L151.258 148.486L151.258 149.454L148.292 149.454ZM165.118 143.431L160.75 143.431L160.75 145.629L164.431 145.629L164.431 146.764L160.75 146.764L160.75 148.961L164.725 148.961L164.725 150.11L160.75 150.11L160.75 153.063L159.643 153.063L159.643 143.431L158.86 143.431C158.245 144.607 157.55 145.68 156.775 146.651L156.002 145.701C156.62 144.962 157.183 144.125 157.691 143.188C158.199 142.25 158.631 141.257 158.986 140.211L160.077 140.533C159.853 141.187 159.625 141.775 159.393 142.296L165.118 142.296L165.118 143.431ZM156.662 140.758C156.307 141.813 155.924 142.775 155.514 143.643L155.514 152.981L154.379 152.981L154.379 145.701C153.987 146.325 153.521 146.973 152.981 147.646L152.434 146.442C153.013 145.713 153.577 144.818 154.126 143.756C154.677 142.692 155.145 141.576 155.527 140.41L156.662 140.758ZM169.626 140.338L169.626 142.802L171.165 142.802L171.165 143.865L169.626 143.865L169.626 146.23L170.97 145.742L171.151 146.849C171.021 146.904 170.644 147.038 170.02 147.252C169.963 147.273 169.903 147.295 169.842 147.317C169.783 147.34 169.711 147.365 169.626 147.393L169.626 151.412C169.626 151.795 169.582 152.084 169.493 152.28C169.404 152.476 169.247 152.619 169.021 152.708C168.798 152.796 168.468 152.85 168.03 152.868C167.723 152.877 167.354 152.859 166.923 152.813L166.714 151.747C167.04 151.804 167.367 151.833 167.695 151.833C168.03 151.833 168.249 151.779 168.352 151.672C168.454 151.565 168.505 151.362 168.505 151.063L168.505 147.772C167.824 147.995 167.232 148.196 166.728 148.374L166.502 147.27C166.698 147.213 167.175 147.058 167.931 146.805C168.034 146.768 168.134 146.734 168.232 146.702C168.33 146.668 168.421 146.637 168.505 146.61L168.505 143.865L166.783 143.865L166.783 142.802L168.505 142.802L168.505 140.338L169.626 140.338ZM179.046 142.929C179.046 143.264 179.024 143.674 178.978 144.159C178.942 144.674 178.813 145.03 178.592 145.226C178.373 145.422 177.988 145.533 177.437 145.561C176.523 145.597 175.828 145.615 175.352 145.615C174.894 145.615 174.199 145.597 173.267 145.561C172.706 145.533 172.311 145.401 172.081 145.164C171.853 144.925 171.739 144.496 171.739 143.879L171.739 140.393L172.833 140.393L172.833 142.327C173.625 142.168 174.552 141.948 175.611 141.667C176.671 141.387 177.555 141.131 178.264 140.898L178.571 141.92C177.797 142.153 176.868 142.405 175.786 142.676C174.703 142.947 173.719 143.176 172.833 143.363L172.833 143.67C172.833 144.026 172.879 144.262 172.973 144.378C173.066 144.494 173.253 144.561 173.533 144.58C174.317 144.618 174.9 144.638 175.283 144.638C175.675 144.638 176.254 144.618 177.02 144.58C177.364 144.561 177.598 144.492 177.724 144.371C177.851 144.248 177.924 144.024 177.942 143.698C177.961 143.324 177.97 142.993 177.97 142.703L179.046 142.929ZM172.792 153.022L171.739 153.022L171.739 146.637L178.363 146.637L178.363 153.008L177.269 153.008L177.269 152.335L172.792 152.335L172.792 153.022ZM177.269 149.002L177.269 147.591L172.792 147.591L172.792 149.002L177.269 149.002ZM172.792 149.983L172.792 151.371L177.269 151.371L177.269 149.983L172.792 149.983ZM193.313 148.292L193.313 149.341L190.305 149.341L190.305 151.146C190.305 151.613 190.254 151.974 190.151 152.229C190.049 152.486 189.873 152.669 189.625 152.776C189.377 152.883 189.034 152.937 188.596 152.937C188.027 152.937 187.461 152.909 186.901 152.854L186.692 151.805C187.365 151.908 187.901 151.959 188.302 151.959C188.544 151.959 188.725 151.928 188.846 151.867C188.969 151.805 189.055 151.696 189.105 151.539C189.158 151.379 189.184 151.146 189.184 150.838L189.184 149.341L180.629 149.341L180.629 148.292L189.184 148.292L189.184 147.112C188.792 147.124 188.209 147.129 187.434 147.129C186.324 147.129 185.083 147.105 183.708 147.058C183.253 147.039 182.898 146.972 182.646 146.856C182.395 146.74 182.213 146.551 182.099 146.289C181.987 146.027 181.931 145.657 181.931 145.181L181.931 140.84L191.522 140.84L191.522 144.467L183.052 144.467L183.052 144.932C183.052 145.342 183.117 145.624 183.247 145.779C183.379 145.932 183.641 146.017 184.033 146.036C185.059 146.093 186.099 146.121 187.154 146.121C188.293 146.121 189.409 146.093 190.5 146.036C190.799 146.017 191.022 145.983 191.17 145.933C191.32 145.881 191.427 145.796 191.491 145.68C191.557 145.562 191.605 145.391 191.635 145.167C191.662 144.944 191.676 144.772 191.676 144.651L192.752 144.915C192.752 144.99 192.734 145.232 192.698 145.643C192.652 146.139 192.496 146.493 192.229 146.702C191.963 146.912 191.503 147.03 190.849 147.058C190.728 147.067 190.547 147.071 190.305 147.071L190.305 148.292L193.313 148.292ZM190.374 143.431L190.374 141.879L183.052 141.879L183.052 143.431L190.374 143.431ZM183.541 149.676C184.439 150.245 185.312 150.833 186.159 151.439L185.517 152.321C185.152 152.032 184.718 151.708 184.214 151.351C183.711 150.991 183.286 150.699 182.939 150.476L183.541 149.676ZM81.313 170.292L81.313 171.341L78.3052 171.341L78.3052 173.146C78.3052 173.613 78.2539 173.974 78.1514 174.229C78.0488 174.486 77.8734 174.669 77.625 174.776C77.3766 174.883 77.0337 174.937 76.5962 174.937C76.0265 174.937 75.4614 174.909 74.9009 174.854L74.6924 173.805C75.3646 173.908 75.9012 173.959 76.3022 173.959C76.5438 173.959 76.7249 173.928 76.8457 173.867C76.9688 173.805 77.0553 173.696 77.1055 173.539C77.1579 173.379 77.1841 173.146 77.1841 172.838L77.1841 171.341L68.6289 171.341L68.6289 170.292L77.1841 170.292L77.1841 169.112C76.7922 169.124 76.2088 169.129 75.4341 169.129C74.3244 169.129 73.0825 169.105 71.7085 169.058C71.2528 169.039 70.8984 168.972 70.6455 168.856C70.3949 168.74 70.2126 168.551 70.0986 168.289C69.987 168.027 69.9312 167.657 69.9312 167.181L69.9312 162.84L79.522 162.84L79.522 166.467L71.0522 166.467L71.0522 166.932C71.0522 167.342 71.1172 167.624 71.2471 167.779C71.3792 167.932 71.6413 168.017 72.0332 168.036C73.0586 168.093 74.0988 168.121 75.1538 168.121C76.2931 168.121 77.4085 168.093 78.5 168.036C78.7985 168.017 79.0218 167.983 79.1699 167.933C79.3203 167.881 79.4274 167.796 79.4912 167.68C79.5573 167.562 79.6051 167.391 79.6348 167.167C79.6621 166.944 79.6758 166.772 79.6758 166.651L80.7524 166.915C80.7524 166.99 80.7342 167.232 80.6978 167.643C80.6522 168.139 80.4961 168.493 80.2295 168.702C79.9629 168.912 79.5026 169.03 78.8486 169.058C78.7279 169.067 78.5467 169.071 78.3052 169.071L78.3052 170.292L81.313 170.292ZM78.3735 165.431L78.3735 163.879L71.0522 163.879L71.0522 165.431L78.3735 165.431ZM71.541 171.676C72.4388 172.245 73.3115 172.833 74.1592 173.439L73.5166 174.321C73.152 174.032 72.7179 173.708 72.2144 173.351C71.7108 172.991 71.2858 172.699 70.9395 172.476L71.541 171.676ZM89.5605 164.228C89.7839 166.263 90.3592 168.062 91.2866 169.625C92.2163 171.188 93.5915 172.586 95.4121 173.819L94.6431 174.796C93.1209 173.678 91.9041 172.493 90.9927 171.242C90.0835 169.991 89.4193 168.521 89 166.833C88.1888 169.754 86.2896 172.419 83.3022 174.827L82.4478 173.874C84.3983 172.417 85.8395 170.894 86.7715 169.304C87.7057 167.711 88.2754 166.07 88.4805 164.382C88.387 164.243 88.2446 164.143 88.0532 164.081C87.8641 164.02 87.6055 163.989 87.2773 163.989L85.2915 163.989L85.2915 162.813L87.7114 162.813C88.3084 162.813 88.7539 162.921 89.0479 163.138C89.3418 163.352 89.5127 163.715 89.5605 164.228ZM100.843 162.898C100.451 163.45 99.9079 164.099 99.2129 164.847C98.5179 165.592 97.8628 166.225 97.2476 166.747L96.6016 165.811C97.1895 165.316 97.8195 164.715 98.4917 164.006C99.1639 163.295 99.6629 162.692 99.9888 162.198L100.843 162.898ZM109.357 167.841L107.549 167.841L107.549 169.352L109.118 169.352L109.118 170.387L107.549 170.387L107.549 173.313C107.549 173.771 107.489 174.116 107.368 174.349C107.247 174.583 107.045 174.743 106.76 174.827C106.475 174.911 106.066 174.954 105.533 174.954C105.273 174.954 104.863 174.934 104.302 174.896L104.09 173.819C104.633 173.894 105.17 173.932 105.704 173.932C105.972 173.932 106.158 173.86 106.261 173.716C106.363 173.57 106.415 173.311 106.415 172.937L106.415 170.387L101.042 170.387L101.042 169.352L106.415 169.352L106.415 167.841L100.748 167.841L100.748 166.774L104.497 166.774L104.497 165.055L101.489 165.055L101.489 164.02L104.497 164.02L104.497 162.283L105.618 162.283L105.618 164.02L108.643 164.02L108.643 165.055L105.618 165.055L105.618 166.774L109.357 166.774L109.357 167.841ZM100.717 166.104C100.427 166.626 100.031 167.232 99.5273 167.923L99.5273 174.981L98.4644 174.981L98.4644 169.252C97.9312 169.861 97.4504 170.361 97.022 170.753L96.5024 169.659C97.0174 169.213 97.6007 168.588 98.2524 167.786C98.9064 166.982 99.4294 166.239 99.8213 165.558L100.717 166.104ZM102.327 170.654C102.637 170.943 103.277 171.596 104.248 172.612L103.448 173.426C103.122 173.052 102.483 172.375 101.53 171.396L102.327 170.654ZM114.481 169.632C114.023 168.998 113.714 168.578 113.555 168.371L113.555 175.022L112.505 175.022L112.505 168.316C112.077 169.585 111.601 170.631 111.077 171.454L110.362 170.626C110.757 170.048 111.142 169.326 111.518 168.463C111.896 167.599 112.207 166.753 112.451 165.923L110.796 165.923L110.796 164.857L112.505 164.857L112.505 162.211L113.555 162.211L113.555 164.857L115.024 164.857L115.024 165.923L113.555 165.923L113.555 166.915C114.359 167.858 114.868 168.465 115.083 168.736L114.481 169.632ZM114.522 166.86C115.39 166.215 116.132 165.518 116.747 164.768C117.365 164.016 117.897 163.188 118.343 162.283L119.352 162.283C119.8 163.188 120.375 164.028 121.074 164.802C121.774 165.577 122.609 166.305 123.58 166.986L122.923 167.854C122.52 167.574 122.09 167.238 121.635 166.846L121.635 167.813L116.159 167.813L116.159 166.932C115.749 167.303 115.428 167.578 115.195 167.755L114.522 166.86ZM118.849 163.473C118.159 164.715 117.333 165.797 116.371 166.72L121.495 166.72C120.392 165.731 119.51 164.648 118.849 163.473ZM118.791 172.151C118.679 171.666 118.516 171.048 118.302 170.298C118.088 169.546 117.906 168.951 117.755 168.511L118.709 168.23C118.839 168.622 119.009 169.183 119.218 169.912C119.428 170.639 119.612 171.292 119.772 171.871L118.791 172.151ZM122.209 168.596C121.751 170.127 121.246 171.746 120.695 173.453L123.118 173.453L123.118 174.502L114.703 174.502L114.703 173.453L119.604 173.453C119.867 172.717 120.141 171.873 120.428 170.92C120.718 169.968 120.966 169.113 121.173 168.357L122.209 168.596ZM116.621 172.684C116.491 172.153 116.306 171.478 116.067 170.657C115.83 169.835 115.627 169.194 115.458 168.736L116.385 168.456C116.542 168.914 116.741 169.537 116.983 170.326C117.227 171.114 117.428 171.793 117.588 172.363L116.621 172.684ZM132.483 164.648C133.044 165.143 133.75 165.603 134.603 166.029C135.457 166.453 136.403 166.814 137.439 167.113L137.005 168.176C135.691 167.709 134.582 167.201 133.68 166.651C132.78 166.1 132.06 165.497 131.52 164.843L131.52 167.226L130.398 167.226L130.398 164.915C129.811 165.558 129.047 166.159 128.108 166.72C127.172 167.28 126.092 167.79 124.868 168.248L124.434 167.195C125.45 166.887 126.39 166.512 127.254 166.07C128.118 165.626 128.848 165.152 129.445 164.648L125.049 164.648L125.049 163.626L130.398 163.626L130.398 162.211L131.52 162.211L131.52 163.626L136.893 163.626L136.893 164.648L132.483 164.648ZM126.673 172.476L126.673 167.728L135.214 167.728L135.214 172.476L126.673 172.476ZM134.093 169.659L134.093 168.624L127.794 168.624L127.794 169.659L134.093 169.659ZM127.794 170.541L127.794 171.549L134.093 171.549L134.093 170.541L127.794 170.541ZM136.937 174.52L124.954 174.52L124.954 173.525L136.937 173.525L136.937 174.52ZM143.824 165.811C143.936 165.455 144.108 164.83 144.34 163.934L139.008 163.934L139.008 162.898L150.865 162.898L150.865 163.934L145.673 163.934C145.477 164.643 145.295 165.268 145.126 165.811L149.508 165.811L149.508 171.648L148.415 171.648L148.415 166.887L141.473 166.887L141.473 171.703L140.379 171.703L140.379 165.811L143.824 165.811ZM150.335 174.981C148.56 173.992 146.731 173.007 144.846 172.024C144.454 172.615 143.824 173.143 142.956 173.61C142.088 174.075 140.856 174.546 139.261 175.022L138.714 173.887C140.33 173.459 141.532 173.037 142.32 172.623C143.109 172.206 143.635 171.75 143.899 171.255C144.166 170.761 144.319 170.104 144.357 169.283C144.367 169.067 144.371 168.544 144.371 167.714L145.533 167.714C145.533 168.573 145.529 169.119 145.52 169.352C145.499 170.015 145.428 170.571 145.308 171.02L148.445 172.585C149.061 172.904 149.882 173.32 150.91 173.833L150.335 174.981ZM165.077 163.975L159.489 163.975C159.313 164.583 159.117 165.106 158.901 165.544L164.335 165.544L164.335 174.937L163.255 174.937L163.255 174.126L154.659 174.126L154.659 174.923L153.569 174.923L153.569 165.544L157.612 165.544C157.856 165.077 158.058 164.554 158.217 163.975L152.813 163.975L152.813 162.939L165.077 162.939L165.077 163.975ZM156.495 166.58L154.659 166.58L154.659 173.132L156.495 173.132L156.495 166.58ZM157.558 168.09L160.33 168.09L160.33 166.58L157.558 166.58L157.558 168.09ZM161.41 173.132L163.255 173.132L163.255 166.58L161.41 166.58L161.41 173.132ZM157.558 170.626L160.33 170.626L160.33 169.085L157.558 169.085L157.558 170.626ZM160.33 171.607L157.558 171.607L157.558 173.132L160.33 173.132L160.33 171.607ZM169.319 166.34L179.104 166.34L179.104 167.379L169.319 167.379C169.31 168.516 169.254 169.483 169.151 170.278C169.049 171.071 168.869 171.824 168.611 172.537C168.354 173.25 167.982 174.014 167.497 174.827L166.502 174.126C166.988 173.343 167.355 172.626 167.603 171.977C167.851 171.327 168.021 170.616 168.112 169.844C168.206 169.069 168.252 168.065 168.252 166.833L168.252 163.401C169.832 163.364 171.514 163.277 173.301 163.138C175.087 162.996 176.681 162.823 178.083 162.618L178.363 163.753C177.157 163.91 175.71 164.055 174.022 164.187C172.333 164.317 170.766 164.415 169.319 164.481L169.319 166.34ZM171.404 174.981L170.313 174.981L170.313 169.297L177.884 169.297L177.884 174.981L176.794 174.981L176.794 174.055L171.404 174.055L171.404 174.981ZM176.794 173.033L176.794 170.319L171.404 170.319L171.404 173.033L176.794 173.033ZM193.187 168.176L193.187 169.283L190.206 169.283L190.206 174.909L189.058 174.909L189.058 169.283L185.042 169.283C184.975 170.16 184.84 170.904 184.635 171.515C184.43 172.126 184.116 172.7 183.695 173.238C183.276 173.773 182.688 174.373 181.931 175.036L181.022 174.181C181.731 173.602 182.279 173.083 182.666 172.623C183.053 172.16 183.34 171.67 183.527 171.153C183.714 170.633 183.836 170.01 183.893 169.283L180.769 169.283L180.769 168.176L183.948 168.176L183.948 167.66L183.948 164.255L181.357 164.255L181.357 163.165L192.571 163.165L192.571 164.255L190.206 164.255L190.206 168.176L193.187 168.176ZM185.096 168.176L189.058 168.176L189.058 164.255L185.096 164.255L185.096 167.533L185.096 168.176ZM205.816 167.448C205.014 167.532 203.931 167.654 202.569 167.813L200.945 167.995L199.879 168.121L199.643 167.068C199.83 166.995 199.962 166.928 200.04 166.867C200.119 166.805 200.201 166.719 200.286 166.607C200.65 166.112 201.063 165.437 201.523 164.58C201.986 163.721 202.376 162.913 202.695 162.157L203.745 162.533C203.446 163.262 203.075 164.045 202.63 164.881C202.188 165.715 201.771 166.403 201.379 166.945L205.341 166.48C204.985 165.744 204.616 165.036 204.233 164.354L205.16 163.907C205.419 164.308 205.764 164.915 206.192 165.729C206.623 166.54 206.996 167.286 207.313 167.967L206.305 168.456L205.816 167.448ZM199.151 165.923C199.03 167.256 198.888 168.352 198.724 169.211C198.562 170.07 198.341 170.836 198.061 171.508C198.751 172.124 199.321 172.646 199.77 173.077L199.083 174C198.793 173.711 198.284 173.221 197.555 172.53C197.06 173.351 196.352 174.232 195.429 175.176L194.66 174.42C195.154 173.926 195.571 173.471 195.911 173.057C196.252 172.64 196.535 172.226 196.758 171.816C196.041 171.192 195.462 170.715 195.022 170.387C195.357 169.082 195.646 167.594 195.89 165.923L194.615 165.923L194.615 164.843L196.03 164.843C196.124 164.023 196.208 163.17 196.283 162.283L197.36 162.352C197.294 163.192 197.209 164.023 197.107 164.843L199.151 164.843L199.151 165.923ZM196.198 169.939C196.524 170.192 196.869 170.477 197.233 170.794C197.448 170.215 197.613 169.565 197.729 168.842C197.847 168.118 197.967 167.145 198.088 165.923L196.953 165.923C196.757 167.332 196.505 168.67 196.198 169.939ZM201.461 175.022L200.357 175.022L200.357 169.27L206.503 169.27L206.503 175.036L205.396 175.036L205.396 174.253L201.461 174.253L201.461 175.022ZM205.396 173.204L205.396 170.305L201.461 170.305L201.461 173.204L205.396 173.204ZM212.481 169.632C212.023 168.998 211.714 168.578 211.555 168.371L211.555 175.022L210.505 175.022L210.505 168.316C210.077 169.585 209.601 170.631 209.077 171.454L208.362 170.626C208.757 170.048 209.142 169.326 209.518 168.463C209.896 167.599 210.207 166.753 210.451 165.923L208.796 165.923L208.796 164.857L210.505 164.857L210.505 162.211L211.555 162.211L211.555 164.857L213.024 164.857L213.024 165.923L211.555 165.923L211.555 166.915C212.359 167.858 212.868 168.465 213.083 168.736L212.481 169.632ZM212.522 166.86C213.39 166.215 214.132 165.518 214.747 164.768C215.365 164.016 215.897 163.188 216.343 162.283L217.352 162.283C217.8 163.188 218.375 164.028 219.074 164.802C219.774 165.577 220.609 166.305 221.58 166.986L220.923 167.854C220.52 167.574 220.09 167.238 219.635 166.846L219.635 167.813L214.159 167.813L214.159 166.932C213.749 167.303 213.428 167.578 213.195 167.755L212.522 166.86ZM216.849 163.473C216.159 164.715 215.333 165.797 214.371 166.72L219.495 166.72C218.392 165.731 217.51 164.648 216.849 163.473ZM216.791 172.151C216.679 171.666 216.516 171.048 216.302 170.298C216.088 169.546 215.906 168.951 215.755 168.511L216.709 168.23C216.839 168.622 217.009 169.183 217.218 169.912C217.428 170.639 217.612 171.292 217.772 171.871L216.791 172.151ZM220.209 168.596C219.751 170.127 219.246 171.746 218.695 173.453L221.118 173.453L221.118 174.502L212.703 174.502L212.703 173.453L217.604 173.453C217.867 172.717 218.141 171.873 218.428 170.92C218.718 169.968 218.966 169.113 219.173 168.357L220.209 168.596ZM214.621 172.684C214.491 172.153 214.306 171.478 214.067 170.657C213.83 169.835 213.627 169.194 213.458 168.736L214.385 168.456C214.542 168.914 214.741 169.537 214.983 170.326C215.227 171.114 215.428 171.793 215.588 172.363L214.621 172.684ZM230.483 164.648C231.044 165.143 231.75 165.603 232.603 166.029C233.457 166.453 234.403 166.814 235.439 167.113L235.005 168.176C233.691 167.709 232.582 167.201 231.68 166.651C230.78 166.1 230.06 165.497 229.52 164.843L229.52 167.226L228.398 167.226L228.398 164.915C227.811 165.558 227.047 166.159 226.108 166.72C225.172 167.28 224.092 167.79 222.868 168.248L222.434 167.195C223.45 166.887 224.39 166.512 225.254 166.07C226.118 165.626 226.848 165.152 227.445 164.648L223.049 164.648L223.049 163.626L228.398 163.626L228.398 162.211L229.52 162.211L229.52 163.626L234.893 163.626L234.893 164.648L230.483 164.648ZM224.673 172.476L224.673 167.728L233.214 167.728L233.214 172.476L224.673 172.476ZM232.093 169.659L232.093 168.624L225.794 168.624L225.794 169.659L232.093 169.659ZM225.794 170.541L225.794 171.549L232.093 171.549L232.093 170.541L225.794 170.541ZM234.937 174.52L222.954 174.52L222.954 173.525L234.937 173.525L234.937 174.52Z" fill="rgb(119,119,119)" fill-rule="nonzero" />
				<g id="容器 30150" customFrame="url(#clipPath_12)">
					<rect id="容器 30150" width="83.000000" height="22.000000" x="110.500000" y="188.000000" />
					<path id="" d="M119.151 198.904L123.659 198.904C123.595 200.77 123.521 202.1 123.437 202.893C123.38 203.417 123.279 203.826 123.133 204.12C122.989 204.414 122.784 204.621 122.518 204.742C122.253 204.862 121.897 204.927 121.448 204.937C121.074 204.937 120.542 204.909 119.852 204.854L119.629 203.651C119.711 203.66 119.918 203.683 120.248 203.72C120.581 203.756 120.907 203.774 121.226 203.774C121.57 203.774 121.811 203.694 121.95 203.532C122.091 203.368 122.195 203.061 122.261 202.612C122.307 202.286 122.341 201.872 122.364 201.368C122.389 200.865 122.401 200.402 122.401 199.98L117.989 199.98L117.989 193.387L119.376 193.387L119.739 192.085L121.027 192.184C120.879 192.736 120.768 193.137 120.692 193.387L123.099 193.387C123.099 193.854 123.083 194.408 123.051 195.048C123.019 195.686 122.979 196.216 122.931 196.638C122.867 197.262 122.709 197.689 122.456 197.919C122.203 198.147 121.816 198.261 121.294 198.261C121.041 198.261 120.709 198.242 120.299 198.203L120.104 197.167C120.478 197.206 120.799 197.226 121.068 197.226C121.294 197.226 121.456 197.167 121.554 197.051C121.652 196.933 121.723 196.72 121.769 196.412C121.808 196.104 121.841 195.757 121.868 195.37C121.896 194.982 121.905 194.667 121.896 194.423L119.151 194.423L119.151 198.904ZM113.412 195.151C113.095 194.834 112.752 194.522 112.383 194.214C112.014 193.907 111.694 193.66 111.423 193.473L112.182 192.451C112.945 193.029 113.611 193.566 114.181 194.061L113.412 195.151ZM117.78 201.143C117.322 201.302 116.68 201.529 115.853 201.823C115.028 202.117 114.508 202.31 114.294 202.404L113.945 201.173L115.316 200.726L115.316 194.956L114.379 194.956L114.379 193.78L117.415 193.78L117.415 194.956L116.478 194.956L116.478 200.346C116.731 200.262 117.062 200.146 117.473 199.998L117.78 201.143ZM120.245 194.689C120.703 195.232 121.085 195.731 121.393 196.187L120.58 196.792C120.318 196.37 119.939 195.861 119.445 195.264L120.245 194.689ZM113.34 198.682C113.033 198.363 112.645 197.991 112.178 197.567C111.713 197.144 111.332 196.81 111.033 196.566L111.802 195.657C112.11 195.88 112.485 196.188 112.927 196.58C113.371 196.972 113.771 197.345 114.126 197.701L113.34 198.682ZM114.027 199.926C113.795 200.71 113.524 201.569 113.214 202.503C112.906 203.435 112.623 204.232 112.363 204.896L111.143 204.42C111.471 203.721 111.795 202.91 112.117 201.987C112.438 201.062 112.683 200.254 112.852 199.563L114.027 199.926ZM117.527 201.269L121.728 201.269L121.728 202.39L117.527 202.39L117.527 201.269ZM125.775 194.901L128.755 194.901L128.755 194.173L125.454 194.173L125.454 193.206L128.755 193.206L128.755 192.297L129.945 192.297L129.945 193.206L133.096 193.206L133.096 192.297L134.286 192.297L134.286 193.206L137.577 193.206L137.577 194.173L134.286 194.173L134.286 194.901L137.252 194.901L137.252 197.393L136.063 197.393L136.063 195.811L126.964 195.811L126.964 197.379L125.775 197.379L125.775 194.901ZM133.096 194.901L133.096 194.173L129.945 194.173L129.945 194.901L133.096 194.901ZM135.113 196.552L135.113 197.42L127.901 197.42L127.901 196.552L135.113 196.552ZM134.593 201.088C135.003 201.676 135.44 202.147 135.902 202.503C136.365 202.856 137.006 203.206 137.827 203.552L137.03 204.629C136.189 204.191 135.5 203.739 134.962 203.272C134.427 202.805 133.945 202.226 133.517 201.536L132.97 201.748C133.063 202.203 133.11 202.693 133.11 203.217C133.11 203.926 132.951 204.418 132.635 204.694C132.318 204.97 131.786 205.107 131.039 205.107C130.656 205.107 130.213 205.079 129.709 205.022L129.497 203.932C129.919 204.014 130.362 204.055 130.827 204.055C131.08 204.055 131.276 204.034 131.415 203.993C131.556 203.952 131.663 203.862 131.736 203.723C131.811 203.582 131.849 203.371 131.849 203.091C131.849 202.754 131.83 202.469 131.794 202.236C131.067 202.758 130.181 203.259 129.135 203.74C128.089 204.221 126.973 204.639 125.789 204.995L125.313 204.041C126.592 203.715 127.77 203.321 128.848 202.858C129.925 202.396 130.852 201.899 131.626 201.368C131.579 201.218 131.508 201.04 131.415 200.835C130.706 201.284 129.873 201.707 128.916 202.103C127.959 202.5 127.019 202.82 126.096 203.063L125.717 202.165C126.669 201.932 127.617 201.639 128.561 201.286C129.504 200.931 130.325 200.557 131.025 200.165C130.941 200.033 130.843 199.906 130.731 199.786C130.002 200.102 129.232 200.394 128.42 200.661C127.609 200.927 126.825 201.139 126.069 201.296L125.748 200.319C127.418 200.039 128.976 199.6 130.423 199.003L125.607 199.003L125.607 198.077L137.437 198.077L137.437 199.003L132.341 199.003L131.726 199.338C132.106 199.787 132.418 200.268 132.662 200.78C133.268 200.536 133.888 200.268 134.521 199.974C135.157 199.68 135.69 199.412 136.121 199.17L136.709 200.107C136.121 200.426 135.416 200.753 134.593 201.088ZM139.354 200.374L139.354 199.17L144.492 199.17L144.492 200.374L139.354 200.374ZM158.645 199.799L158.645 201.061L153.173 201.061L153.173 203.146C153.173 203.613 153.126 203.974 153.033 204.229C152.94 204.486 152.782 204.673 152.561 204.79C152.343 204.908 152.033 204.967 151.632 204.967C150.978 204.967 150.32 204.939 149.659 204.882L149.379 203.58C150.145 203.673 150.724 203.72 151.116 203.72C151.366 203.72 151.54 203.641 151.638 203.484C151.736 203.324 151.785 203.062 151.785 202.698L151.785 201.061L146.074 201.061L146.074 199.799L151.785 199.799L151.785 197.813L147.055 197.813L147.055 196.539L151.785 196.539L151.785 194.409C150.097 194.521 148.483 194.605 146.942 194.662L146.829 193.401C148.231 193.364 149.983 193.27 152.086 193.117C154.192 192.962 155.991 192.796 157.483 192.618L157.664 193.907C156.603 194.037 155.105 194.177 153.173 194.327L153.173 196.539L157.664 196.539L157.664 197.813L153.173 197.813L153.173 199.799L158.645 199.799ZM164.528 200.192C164.35 199.987 163.91 199.516 163.208 198.777L163.208 205.135L161.964 205.135L161.964 199.017C161.47 200.072 160.915 201.023 160.3 201.871L159.681 200.64C160.073 200.098 160.483 199.403 160.911 198.555C161.342 197.705 161.688 196.879 161.951 196.077L160.047 196.077L160.047 194.816L161.964 194.816L161.964 192.283L163.208 192.283L163.208 194.816L164.989 194.816L164.989 196.077L163.208 196.077L163.208 197.239C163.489 197.481 163.845 197.817 164.278 198.248C164.713 198.676 165.053 199.026 165.297 199.297L164.528 200.192ZM172.744 200.613C172.744 200.957 172.738 201.4 172.724 201.942C172.71 202.482 172.693 202.935 172.673 203.299C172.654 203.691 172.603 203.985 172.519 204.181C172.435 204.377 172.292 204.515 172.092 204.595C171.891 204.674 171.604 204.714 171.23 204.714L170.533 204.714C170.066 204.714 169.737 204.606 169.545 204.39C169.354 204.175 169.258 203.789 169.258 203.231L169.258 194.454L167.006 194.454L167.006 197.923C167.006 199.249 166.953 200.309 166.848 201.102C166.746 201.895 166.559 202.6 166.288 203.217C166.019 203.833 165.609 204.49 165.057 205.189L163.909 204.379C164.433 203.735 164.816 203.156 165.057 202.643C165.301 202.128 165.47 201.521 165.563 200.821C165.657 200.122 165.703 199.151 165.703 197.909L165.703 193.107L170.533 193.107L170.533 202.824C170.533 203.077 170.558 203.243 170.608 203.323C170.661 203.401 170.77 203.439 170.936 203.439L171.135 203.439C171.303 203.439 171.413 203.397 171.463 203.313C171.515 203.229 171.546 203.048 171.555 202.77C171.564 202.469 171.576 202.084 171.589 201.614C171.603 201.143 171.61 200.734 171.61 200.387L172.744 200.613Z" fill="rgb(25,25,25)" fill-rule="nonzero" />
					<g id="ic_public_chevron_up" clip-path="url(#clipPath_13)" customFrame="url(#clipPath_13)">
						<rect id="ic_public_chevron_up" width="16.000000" height="16.000000" x="0.000000" y="0.000000" transform="matrix(1,0,0,-1,177.5,207)" />
						<g id="ic_public_chevron_up-下拉/base/ic_public_chevron_up">
							<path id="path4" d="M0 0L4.875 5L9.75 0" fill-rule="evenodd" stroke="rgb(25,25,25)" stroke-linecap="round" stroke-linejoin="round" stroke-width="1.000000" transform="matrix(-1,0,0,1,190.375,196.5)" />
						</g>
					</g>
				</g>
			</g>
		</g>
		<g id="对比按钮">
			<path id="矩形 3634" d="M50 222L254 222C258.418 222 262 225.582 262 230L262 246C262 250.418 258.418 254 254 254L50 254C45.5817 254 42 250.418 42 246L42 230C42 225.582 45.5817 222 50 222Z" fill="rgb(25,25,25)" fill-opacity="0.200000003" fill-rule="evenodd" />
			<path id="" d="M137.464 237.176L137.464 238.283L134.484 238.283L134.484 243.909L133.335 243.909L133.335 238.283L129.319 238.283C129.253 239.16 129.118 239.904 128.913 240.515C128.708 241.126 128.394 241.7 127.973 242.238C127.553 242.773 126.965 243.373 126.209 244.036L125.3 243.181C126.008 242.602 126.556 242.083 126.944 241.623C127.331 241.16 127.618 240.67 127.805 240.153C127.992 239.633 128.114 239.01 128.171 238.283L125.047 238.283L125.047 237.176L128.226 237.176L128.226 236.66L128.226 233.255L125.635 233.255L125.635 232.165L136.849 232.165L136.849 233.255L134.484 233.255L134.484 237.176L137.464 237.176ZM129.374 237.176L133.335 237.176L133.335 233.255L129.374 233.255L129.374 236.533L129.374 237.176ZM150.094 236.448C149.292 236.532 148.209 236.654 146.847 236.813L145.223 236.995L144.157 237.121L143.921 236.068C144.108 235.995 144.24 235.928 144.317 235.867C144.397 235.805 144.479 235.719 144.563 235.607C144.928 235.112 145.34 234.437 145.801 233.58C146.263 232.721 146.654 231.913 146.973 231.157L148.022 231.533C147.724 232.262 147.353 233.045 146.908 233.881C146.466 234.715 146.049 235.403 145.657 235.945L149.619 235.48C149.263 234.744 148.894 234.036 148.511 233.354L149.438 232.907C149.697 233.308 150.041 233.915 150.47 234.729C150.9 235.54 151.274 236.286 151.591 236.967L150.583 237.456L150.094 236.448ZM143.429 234.923C143.308 236.256 143.166 237.352 143.001 238.211C142.84 239.07 142.619 239.836 142.338 240.508C143.029 241.124 143.598 241.646 144.047 242.077L143.36 243C143.071 242.711 142.562 242.221 141.833 241.53C141.338 242.351 140.629 243.232 139.707 244.176L138.938 243.42C139.432 242.926 139.849 242.471 140.188 242.057C140.53 241.64 140.813 241.226 141.036 240.816C140.318 240.192 139.74 239.715 139.3 239.387C139.635 238.082 139.924 236.594 140.168 234.923L138.893 234.923L138.893 233.843L140.308 233.843C140.402 233.023 140.486 232.17 140.561 231.283L141.638 231.352C141.572 232.192 141.487 233.023 141.385 233.843L143.429 233.843L143.429 234.923ZM140.476 238.939C140.801 239.192 141.147 239.477 141.511 239.794C141.725 239.215 141.891 238.565 142.007 237.842C142.125 237.118 142.245 236.145 142.366 234.923L141.231 234.923C141.035 236.332 140.783 237.67 140.476 238.939ZM145.739 244.022L144.635 244.022L144.635 238.27L150.781 238.27L150.781 244.036L149.673 244.036L149.673 243.253L145.739 243.253L145.739 244.022ZM149.673 242.204L149.673 239.305L145.739 239.305L145.739 242.204L149.673 242.204ZM165.676 234.055L165.676 235.132L163.954 235.132L163.954 241.937C163.954 242.627 163.816 243.117 163.54 243.407C163.264 243.696 162.777 243.845 162.077 243.854C161.444 243.873 160.869 243.849 160.354 243.783L160.119 242.638C160.716 242.711 161.28 242.747 161.811 242.747C162.091 242.747 162.3 242.717 162.439 242.658C162.581 242.597 162.676 242.487 162.727 242.33C162.779 242.171 162.805 241.931 162.805 241.612L162.805 235.132L158.898 235.132L158.898 234.055L162.805 234.055L162.805 231.27L163.954 231.27L163.954 234.055L165.676 234.055ZM158.283 233.888C157.966 235.706 157.5 237.311 156.885 238.704C157.072 238.963 157.342 239.355 157.695 239.879C158.377 240.859 158.802 241.465 158.97 241.698L158.017 242.426C157.383 241.473 156.81 240.625 156.297 239.879C155.634 241.11 154.715 242.384 153.539 243.701L152.726 242.792C153.949 241.456 154.897 240.125 155.569 238.799C154.439 237.156 153.654 236.041 153.214 235.453L154.113 234.824C154.578 235.439 155.249 236.368 156.126 237.61C156.566 236.5 156.913 235.254 157.166 233.871L153.132 233.871L153.132 232.753L158.283 232.753L158.283 233.888ZM160.929 240.173C160.678 239.761 160.321 239.196 159.859 238.478C159.396 237.76 159.044 237.228 158.803 236.882L159.671 236.294C159.988 236.761 160.351 237.302 160.761 237.917C161.171 238.533 161.541 239.089 161.869 239.585L160.929 240.173ZM178.207 241.277C178.216 241.027 178.229 240.692 178.248 240.272C178.266 239.851 178.275 239.495 178.275 239.206L179.369 239.459L179.283 241.725C179.265 242.361 179.113 242.809 178.829 243.068C178.544 243.33 178.061 243.481 177.379 243.52C177.129 243.538 176.755 243.547 176.258 243.547C175.755 243.547 175.378 243.538 175.127 243.52C174.576 243.49 174.176 243.34 173.927 243.068C173.681 242.799 173.558 242.333 173.558 241.67L173.558 231.379L174.72 231.379L174.72 236.615C175.374 236.16 176.074 235.622 176.819 235.002C177.566 234.38 178.159 233.844 178.596 233.396L179.382 234.305C178.785 234.893 178.036 235.549 177.133 236.273C176.233 236.996 175.429 237.595 174.72 238.071L174.72 241.264C174.72 241.683 174.781 241.972 174.901 242.132C175.022 242.291 175.256 242.385 175.602 242.412C175.958 242.43 176.223 242.439 176.398 242.439C176.567 242.439 176.829 242.43 177.185 242.412C177.567 242.385 177.828 242.297 177.967 242.149C178.109 241.999 178.188 241.708 178.207 241.277ZM169.398 242.033L172.803 240.621L172.916 241.824C171.375 242.394 170.254 242.833 169.552 243.14C168.976 243.393 168.556 243.594 168.294 243.742L167.789 242.58C167.975 242.477 168.1 242.384 168.161 242.299C168.223 242.215 168.253 242.085 168.253 241.91L168.253 231.533L169.398 231.533L169.398 235.426L172.816 235.426L172.816 236.602L169.398 236.602L169.398 242.033Z" fill="rgb(255,255,255)" fill-rule="nonzero" />
		</g>
	</g>
	<rect id="容器 31841" width="303.000000" height="269.000000" x="0.500000" y="0.500000" rx="11.500000" stroke="rgb(223,223,223)" stroke-opacity="0" stroke-linecap="butt" stroke-dasharray="4 4 " stroke-width="1.000000" />
</svg>
